<svg width="70" height="70" viewBox="0 0 70 70" fill="none" xmlns="http://www.w3.org/2000/svg">
<path d="M2.52001 67.55H1.40001C0.980012 67.55 0.700012 67.83 0.700012 68.25C0.700012 68.67 0.980012 68.95 1.40001 68.95H2.52001C2.94001 68.95 3.22001 68.67 3.22001 68.25C3.22001 67.83 2.94001 67.55 2.52001 67.55Z" fill="#C0A430"/>
<path d="M68.6 67.55H66.78C66.36 67.55 66.08 67.83 66.08 68.25C66.08 68.67 66.36 68.95 66.78 68.95H68.6C69.02 68.95 69.3 68.67 69.3 68.25C69.3 67.83 68.95 67.55 68.6 67.55Z" fill="#C0A430"/>
<path d="M63.98 63.7699H63.28V61.5299C63.28 61.1099 63 60.8299 62.58 60.8299C62.16 60.8299 61.88 61.1099 61.88 61.5299V63.7699H27.58V41.0199C27.58 40.0399 26.81 39.2699 25.83 39.2699H14C13.02 39.2699 12.25 40.0399 12.25 41.0199V63.7699H8.05001V31.0099C8.05001 30.5899 7.77001 30.3099 7.35001 30.3099C6.93001 30.3099 6.65001 30.5899 6.65001 31.0099V63.7699H6.02001C5.18001 63.7699 4.48001 64.4699 4.48001 65.3099V67.4799C4.48001 67.7599 4.55001 68.0399 4.69001 68.2499C4.69001 68.6699 4.97001 68.9499 5.39001 68.9499H5.95001H63.91H63.98H64.05C64.75 68.8799 65.31 68.1799 65.31 67.4799V65.3099C65.45 64.4699 64.75 63.7699 63.98 63.7699ZM13.72 41.0199C13.72 40.8099 13.86 40.6699 14.07 40.6699H25.9C26.11 40.6699 26.25 40.8099 26.25 41.0199V63.7699H13.72V41.0199ZM5.95001 65.2399C5.95001 65.1699 6.02001 65.0999 6.09001 65.0999H63.98C64.05 65.0999 64.05 65.1699 64.05 65.2399V67.4099C64.05 67.4799 63.98 67.4799 63.98 67.4799H6.09001C6.02001 67.4799 5.95001 67.4099 5.95001 67.4099V65.2399Z" fill="#C0A430"/>
<path d="M6.72001 25.69C6.72001 26.04 7.00001 26.39 7.42001 26.39C7.84001 26.39 8.12001 26.11 8.12001 25.69V21.77H61.88V58.59C61.88 58.94 62.16 59.29 62.58 59.29C63 59.29 63.28 59.01 63.28 58.59V21.77H65.17C66.08 21.77 66.85 21 66.85 20.09V17.36C66.85 16.45 66.08 15.68 65.17 15.68H39.2L47.95 6.92998C48.23 6.64998 48.23 6.15998 48.02 5.94998C47.95 5.87998 48.23 6.15998 43.19 1.67998C42.7 1.25998 42.07 0.97998 41.37 0.97998C38.29 0.97998 31.71 0.97998 28.63 0.97998C27.93 0.97998 27.3 1.18998 26.81 1.67998L22.05 5.87998C21.7 6.22998 21.77 6.64998 22.05 6.92998L30.8 15.61H4.13001C3.22001 15.61 2.45001 16.38 2.45001 17.29V20.02C2.45001 21 3.22001 21.7 4.13001 21.7H6.72001V25.69ZM37.24 15.61H37.1L40.67 7.13998H45.78L37.24 15.61ZM35.56 15.61H34.37L30.8 7.06998H39.13L35.56 15.61ZM41.37 2.44998C41.72 2.44998 42 2.58998 42.28 2.79998L45.64 5.73998H40.67L39.13 2.44998H41.37ZM37.52 2.44998L39.06 5.73998H30.87L32.41 2.44998H37.52ZM27.72 2.79998C28 2.58998 28.28 2.44998 28.63 2.44998H30.94L29.4 5.73998H24.43L27.72 2.79998ZM24.22 7.13998H29.33L32.9 15.61H32.76L24.22 7.13998ZM3.85001 20.02V17.29C3.85001 17.15 3.99001 17.01 4.13001 17.01H65.24C65.38 17.01 65.52 17.15 65.52 17.29V20.02C65.52 20.16 65.38 20.3 65.24 20.3H62.72H62.65H7.49001H7.42001H4.20001C3.99001 20.3 3.85001 20.23 3.85001 20.02Z" fill="#C0A430"/>
<path d="M23.31 49.91C22.89 49.91 22.61 50.19 22.61 50.61V53.83C22.61 54.25 22.89 54.53 23.31 54.53C23.73 54.53 24.01 54.25 24.01 53.83V50.61C24.01 50.26 23.66 49.91 23.31 49.91Z" fill="#C0A430"/>
<path d="M32.76 28.35C31.78 28.35 30.94 29.12 30.94 30.1V56.49C30.94 57.47 31.71 58.24 32.69 58.24H57.61C58.59 58.24 59.43 57.47 59.43 56.49V30.1C59.43 29.12 58.66 28.28 57.68 28.28L32.76 28.35ZM58.03 30.17V56.56C58.03 56.77 57.82 56.91 57.61 56.91H32.69C32.48 56.91 32.34 56.7 32.34 56.56V30.17C32.34 29.96 32.55 29.82 32.76 29.82H57.68C57.89 29.75 58.03 29.96 58.03 30.17Z" fill="#C0A430"/>
<path d="M55.09 40.46C51.1 39.97 49.35 36.75 49.35 33.25C49.35 33.18 49.35 33.04 49.35 32.97C49.35 32.34 48.79 31.78 48.16 31.78H42.28C41.65 31.78 41.09 32.27 41.09 32.97V33.25C41.09 35.91 39.9 38.85 37.17 39.97C37.1 39.97 37.03 40.04 36.96 40.04C36.47 40.18 35.98 40.32 35.42 40.39C35.07 40.46 34.79 40.74 34.79 41.09C34.79 41.23 34.86 52.5 44.87 54.74C45.01 54.81 45.15 54.81 45.29 54.81C45.43 54.81 45.57 54.81 45.71 54.74C55.65 52.5 55.72 41.23 55.72 41.16C55.72 40.81 55.44 40.46 55.09 40.46ZM50.75 43.26C51.1 43.26 51.38 43.54 51.38 43.89C51.38 44.24 51.1 44.52 50.75 44.52C50.4 44.52 50.12 44.24 50.12 43.89C50.12 43.54 50.4 43.26 50.75 43.26ZM42.49 33.18H47.95V33.74H42.42C42.42 33.67 42.42 33.6 42.42 33.6C42.49 33.46 42.49 33.32 42.49 33.18ZM42.28 35.14H48.23C48.58 37.03 49.56 39.55 52.01 40.88C51.94 41.3 51.8 41.65 51.59 42C51.31 41.86 51.03 41.86 50.75 41.86C49.63 41.86 48.72 42.77 48.72 43.89V44.1C48.37 44.24 48.02 44.31 47.67 44.45C47.25 43.47 46.34 42.84 45.29 42.84C44.17 42.84 43.19 43.54 42.84 44.52C42.49 44.45 42.14 44.38 41.79 44.24C41.79 43.12 40.88 42.21 39.76 42.21C39.41 42.21 39.06 42.28 38.78 42.42C38.43 42 38.22 41.58 38.08 41.09C40.81 39.83 41.86 37.17 42.28 35.14ZM44.24 44.73C44.73 44.1 45.71 44.1 46.2 44.73C46.41 44.94 46.48 45.22 46.48 45.5C46.48 45.71 46.41 45.92 46.27 46.13C46.06 46.48 45.64 46.69 45.22 46.69C44.8 46.69 44.45 46.48 44.17 46.13C43.89 45.71 43.89 45.15 44.24 44.73ZM39.69 44.94C39.62 44.94 39.62 44.94 39.55 44.94C39.41 44.94 39.27 44.8 39.2 44.73C39.06 44.59 39.06 44.45 39.06 44.31C39.06 43.96 39.34 43.68 39.69 43.68C40.04 43.68 40.32 43.96 40.32 44.31C40.32 44.59 40.04 44.94 39.69 44.94ZM45.36 53.41C45.29 53.41 45.22 53.41 45.08 53.41C37.31 51.59 36.26 43.89 36.12 41.72C36.33 41.72 36.47 41.65 36.68 41.58C36.82 42.28 37.24 42.91 37.73 43.47C37.66 43.68 37.59 43.96 37.59 44.24C37.59 45.36 38.5 46.27 39.62 46.27C40.25 46.27 40.81 45.99 41.16 45.57C41.58 45.71 42.07 45.85 42.56 45.92C42.77 47.11 43.82 48.09 45.15 48.09C46.48 48.09 47.53 47.11 47.74 45.85C48.3 45.71 48.79 45.57 49.28 45.36C49.63 45.71 50.12 45.92 50.68 45.92C51.8 45.92 52.71 45.01 52.71 43.89C52.71 43.54 52.64 43.26 52.5 42.98C52.85 42.49 53.06 42 53.2 41.44C53.48 41.51 53.83 41.65 54.18 41.72C54.11 43.96 52.99 51.66 45.36 53.41Z" fill="#C0A430"/>
</svg>
