<svg width="70" height="70" viewBox="0 0 70 70" fill="none" xmlns="http://www.w3.org/2000/svg">
<g clip-path="url(#clip0_1_328)">
<path d="M35.8043 3.21289H37.8551V5.26367H35.8043V3.21289Z" fill="#C0A430"/>
<path d="M39.2222 3.21289H41.273V5.26367H39.2222V3.21289Z" fill="#C0A430"/>
<path d="M28.7563 3.21289H34.4371V5.26367H28.7563V3.21289Z" fill="#C0A430"/>
<path d="M10.6641 0V69.9995H23.8462V67.9487H12.7148V2.05078H57.3145V67.9487H46.3605V69.9995H59.3653V0H10.6641Z" fill="#C0A430"/>
<path d="M38.2882 16.6396V20.6296L39.6912 22.0315H39.9587V25.3731H42.0095V22.0315H42.2776L43.6806 20.6296V16.6396H41.6298V19.7799L41.4285 19.9807H40.5403L40.339 19.7799V16.6396H38.2882Z" fill="#C0A430"/>
<path d="M32.3185 16.6396V23.9707L33.7215 25.3731H36.3079L37.7109 23.9707V16.6396H35.6601V23.121L35.4587 23.3223H34.5706L34.3693 23.121V16.6396H32.3185Z" fill="#C0A430"/>
<path d="M46.1324 61.4545V63.5053H55.2637V6.49414H14.7656V63.5053H23.8462V61.4545H16.8164V52.0236L25.5552 60.7987V70H44.4234V60.7774L49.6855 55.5666V39.6858L47.3512 37.3515H44.6515V36.8772L43.1348 35.36L39.0578 35.3594V34.3944L37.3221 32.6587H33.3321V25.1477L31.7406 23.5567V21.3831L31.3636 21.0061L31.7406 20.629V18.0421L30.3382 16.6396H26.3488V24.3541L25.5557 25.1477V47.5044L22.6035 44.5559L19.3494 44.557L16.8164 47.0895V8.54492H53.213V61.4545H46.1324ZM28.3996 18.6904H29.4891L29.6899 18.8918V19.7799L29.4891 19.9812H28.3996V18.6904ZM29.4891 22.0315L29.6899 22.2328V23.121L29.4891 23.3223H28.3996V22.032H29.4891V22.0315ZM18.0287 48.7776L20.1986 46.6077L21.7548 46.6072L27.606 52.4519V25.9974L28.226 25.3779H30.6613L31.2814 25.9974V44.7898H33.3321V34.7089H36.4724L37.007 35.2435V44.7898H39.0578V37.4102L42.2851 37.4107L42.6007 37.7264V44.7898H44.6515V39.4017H46.5015L47.6347 40.535V54.7115L42.3727 59.9223V67.9492H27.606V59.9517L18.0271 50.3328L18.0287 48.7776Z" fill="#C0A430"/>
<path d="M48.2217 13.5747H21.8072V27.4127H23.858V15.6255H46.1709V26.3873H35.0411V28.4381H48.2217V13.5747Z" fill="#C0A430"/>
<path d="M41.0055 66.2402H38.9547V58.4969L40.1029 57.3588L41.5465 58.8157L41.0055 59.3514V66.2402ZM42.5174 57.8533L41.0739 56.3964L42.5302 54.9529L43.9738 56.4098L42.5174 57.8533ZM44.9447 55.4474L43.5011 53.991L44.9581 52.5475L46.4016 54.0039L44.9447 55.4474Z" fill="#C0A430"/>
<path d="M51.8458 24.3477H49.795V17.7734H51.8458V24.3477ZM51.8458 16.4062H49.795V14.3555H51.8458V16.4062ZM51.8458 12.9883H49.795V10.9375H51.8458V12.9883Z" fill="#C0A430"/>
<path d="M55.659 66.5815H52.5155V64.5308H55.659V66.5815ZM51.1483 66.5815H49.0975V64.5308H51.1483V66.5815ZM47.7303 66.5815H45.6796V64.5308H47.7303V66.5815Z" fill="#C0A430"/>
</g>
<defs>
<clipPath id="clip0_1_328">
<rect width="70" height="70" fill="white"/>
</clipPath>
</defs>
</svg>
