<svg width="70" height="70" viewBox="0 0 70 70" fill="none" xmlns="http://www.w3.org/2000/svg">
<path d="M63.4375 44.8438H56.875C56.5849 44.8438 56.3067 44.959 56.1016 45.1641C55.8965 45.3692 55.7812 45.6474 55.7812 45.9375V52.5C55.7812 52.7901 55.8965 53.0683 56.1016 53.2734C56.3067 53.4785 56.5849 53.5938 56.875 53.5938H63.4375C63.7276 53.5938 64.0058 53.4785 64.2109 53.2734C64.416 53.0683 64.5312 52.7901 64.5312 52.5V45.9375C64.5312 45.6474 64.416 45.3692 64.2109 45.1641C64.0058 44.959 63.7276 44.8438 63.4375 44.8438ZM62.3438 51.4062H57.9688V47.0312H62.3438V51.4062Z" fill="#C0A430"/>
<path d="M43.75 41.5625H47.0312V43.75H43.75V41.5625Z" fill="#C0A430"/>
<path d="M38.2812 41.5625H41.5625V43.75H38.2812V41.5625Z" fill="#C0A430"/>
<path d="M32.8125 41.5625H36.0938V43.75H32.8125V41.5625Z" fill="#C0A430"/>
<path d="M27.3438 41.5625H30.625V43.75H27.3438V41.5625Z" fill="#C0A430"/>
<path d="M45.9375 47.0312H39.375C39.0849 47.0312 38.8067 47.1465 38.6016 47.3516C38.3965 47.5567 38.2812 47.8349 38.2812 48.125V52.5C38.2812 52.7901 38.3965 53.0683 38.6016 53.2734C38.8067 53.4785 39.0849 53.5938 39.375 53.5938H45.9375C46.2276 53.5938 46.5058 53.4785 46.7109 53.2734C46.916 53.0683 47.0312 52.7901 47.0312 52.5V48.125C47.0312 47.8349 46.916 47.5567 46.7109 47.3516C46.5058 47.1465 46.2276 47.0312 45.9375 47.0312ZM44.8438 51.4062H40.4688V49.2188H44.8438V51.4062Z" fill="#C0A430"/>
<path d="M35 47.0312H28.4375C28.1474 47.0312 27.8692 47.1465 27.6641 47.3516C27.459 47.5567 27.3438 47.8349 27.3438 48.125V52.5C27.3438 52.7901 27.459 53.0683 27.6641 53.2734C27.8692 53.4785 28.1474 53.5938 28.4375 53.5938H35C35.2901 53.5938 35.5683 53.4785 35.7734 53.2734C35.9785 53.0683 36.0938 52.7901 36.0938 52.5V48.125C36.0938 47.8349 35.9785 47.5567 35.7734 47.3516C35.5683 47.1465 35.2901 47.0312 35 47.0312ZM33.9062 51.4062H29.5312V49.2188H33.9062V51.4062Z" fill="#C0A430"/>
<path d="M64.5312 27.3438H39.5938L37.1875 23.7344V2.1875C37.1875 1.89742 37.0723 1.61922 36.8671 1.4141C36.662 1.20898 36.3838 1.09375 36.0938 1.09375H12.0312C11.7412 1.09375 11.463 1.20898 11.2579 1.4141C11.0527 1.61922 10.9375 1.89742 10.9375 2.1875V23.7344L4.55875 33.2992C4.43925 33.4791 4.37534 33.6903 4.375 33.9062V62.3438H2.1875C1.89742 62.3438 1.61922 62.459 1.4141 62.6641C1.20898 62.8692 1.09375 63.1474 1.09375 63.4375V67.8125C1.09375 68.1026 1.20898 68.3808 1.4141 68.5859C1.61922 68.791 1.89742 68.9062 2.1875 68.9062H45.9375C46.2276 68.9062 46.5058 68.791 46.7109 68.5859C46.916 68.3808 47.0312 68.1026 47.0312 67.8125V63.4375C47.0312 63.1474 46.916 62.8692 46.7109 62.6641C46.5058 62.459 46.2276 62.3438 45.9375 62.3438H43.75V57.9688H64.5312C65.6916 57.9688 66.8044 57.5078 67.6248 56.6873C68.4453 55.8669 68.9062 54.7541 68.9062 53.5938V31.7188C68.9062 30.5584 68.4453 29.4456 67.6248 28.6252C66.8044 27.8047 65.6916 27.3438 64.5312 27.3438ZM66.7188 31.7188H25.1562C25.1562 31.1386 25.3867 30.5822 25.797 30.172C26.2072 29.7617 26.7636 29.5312 27.3438 29.5312H64.5312C65.1114 29.5312 65.6678 29.7617 66.078 30.172C66.4883 30.5822 66.7188 31.1386 66.7188 31.7188ZM25.1562 33.9062H66.7188V37.1875H25.1562V33.9062ZM35 3.28125V22.9688H13.125V3.28125H35ZM12.6164 25.1562H35.5086L36.9687 27.3438H27.3438C26.1834 27.3438 25.0706 27.8047 24.2502 28.6252C23.4297 29.4456 22.9688 30.5584 22.9688 31.7188V32.8125H7.51188L12.6164 25.1562ZM44.8438 66.7188H3.28125V64.5312H44.8438V66.7188ZM41.5625 62.3438H6.5625V35H22.9688V53.5938C22.9688 54.7541 23.4297 55.8669 24.2502 56.6873C25.0706 57.5078 26.1834 57.9688 27.3438 57.9688H41.5625V62.3438ZM64.5312 55.7812H27.3438C26.7636 55.7812 26.2072 55.5508 25.797 55.1405C25.3867 54.7303 25.1562 54.1739 25.1562 53.5938V39.375H66.7188V53.5938C66.7188 54.1739 66.4883 54.7303 66.078 55.1405C65.6678 55.5508 65.1114 55.7812 64.5312 55.7812Z" fill="#C0A430"/>
<path d="M18.5938 27.3438H20.7812V29.5312H18.5938V27.3438Z" fill="#C0A430"/>
<path d="M14.2188 27.3438H16.4062V29.5312H14.2188V27.3438Z" fill="#C0A430"/>
<path d="M19.6875 37.1875H9.84375C9.55367 37.1875 9.27547 37.3027 9.07035 37.5079C8.86523 37.713 8.75 37.9912 8.75 38.2812V42.6562C8.75 42.9463 8.86523 43.2245 9.07035 43.4296C9.27547 43.6348 9.55367 43.75 9.84375 43.75H19.6875C19.9776 43.75 20.2558 43.6348 20.4609 43.4296C20.666 43.2245 20.7812 42.9463 20.7812 42.6562V38.2812C20.7812 37.9912 20.666 37.713 20.4609 37.5079C20.2558 37.3027 19.9776 37.1875 19.6875 37.1875ZM18.5938 41.5625H10.9375V39.375H18.5938V41.5625Z" fill="#C0A430"/>
<path d="M16.4062 20.7812H31.7188C32.0088 20.7812 32.287 20.666 32.4921 20.4609C32.6973 20.2558 32.8125 19.9776 32.8125 19.6875V6.5625C32.8125 6.27242 32.6973 5.99422 32.4921 5.7891C32.287 5.58398 32.0088 5.46875 31.7188 5.46875H16.4062C16.1162 5.46875 15.838 5.58398 15.6329 5.7891C15.4277 5.99422 15.3125 6.27242 15.3125 6.5625V19.6875C15.3125 19.9776 15.4277 20.2558 15.6329 20.4609C15.838 20.666 16.1162 20.7812 16.4062 20.7812ZM17.5 7.65625H30.625V18.5938H17.5V7.65625Z" fill="#C0A430"/>
</svg>
