<svg width="70" height="70" viewBox="0 0 70 70" fill="none" xmlns="http://www.w3.org/2000/svg">
<path d="M67.8125 57.9688H65.625V47.7072C66.3263 46.9178 66.7152 45.8996 66.7188 44.8438C66.7216 43.7385 66.3052 42.6734 65.5535 41.8632C64.8017 41.053 63.7706 40.5582 62.6683 40.4785C61.5659 40.3988 60.4744 40.7403 59.614 41.4339C58.7535 42.1276 58.1882 43.1218 58.0322 44.2159L55.0791 46.1847C53.3313 47.3272 51.3053 47.9718 49.2188 48.0495V27.3438H50.3125C50.6026 27.3438 50.8808 27.2285 51.0859 27.0234C51.291 26.8183 51.4062 26.5401 51.4062 26.25V21.875C51.4062 21.5849 51.291 21.3067 51.0859 21.1016C50.8808 20.8965 50.6026 20.7812 50.3125 20.7812H49.2188V12.0312C49.2187 11.7412 49.1034 11.463 48.8983 11.258L43.4295 5.78922C43.2245 5.58409 42.9463 5.46881 42.6562 5.46875H27.3438C27.0537 5.46881 26.7755 5.58409 26.5705 5.78922L21.1017 11.258C20.8966 11.463 20.7813 11.7412 20.7812 12.0312V20.7812H19.6875C19.3974 20.7812 19.1192 20.8965 18.9141 21.1016C18.709 21.3067 18.5938 21.5849 18.5938 21.875V26.25C18.5938 26.5401 18.709 26.8183 18.9141 27.0234C19.1192 27.2285 19.3974 27.3438 19.6875 27.3438H20.7812V48.0495C18.6956 47.9733 16.67 47.3305 14.922 46.1902L11.9689 44.2214C11.8758 43.5468 11.6261 42.9034 11.2399 42.3426C10.8536 41.7818 10.3414 41.3192 9.74439 40.9918C9.14734 40.6643 8.48194 40.4811 7.80142 40.4568C7.12089 40.4326 6.44413 40.5679 5.82526 40.8519C5.20639 41.136 4.66259 41.561 4.23734 42.0928C3.81209 42.6247 3.51721 43.2487 3.37627 43.9149C3.23533 44.5811 3.25224 45.271 3.42567 45.9295C3.59909 46.588 3.9242 47.1968 4.375 47.7072V57.9688H2.1875C1.89742 57.9688 1.61922 58.084 1.4141 58.2891C1.20898 58.4942 1.09375 58.7724 1.09375 59.0625V63.4375C1.09375 63.7276 1.20898 64.0058 1.4141 64.2109C1.61922 64.416 1.89742 64.5312 2.1875 64.5312H67.8125C68.1026 64.5312 68.3808 64.416 68.5859 64.2109C68.791 64.0058 68.9062 63.7276 68.9062 63.4375V59.0625C68.9062 58.7724 68.791 58.4942 68.5859 58.2891C68.3808 58.084 68.1026 57.9688 67.8125 57.9688ZM61.25 57.9688V49.0634C61.9645 49.2705 62.723 49.2705 63.4375 49.0634V57.9688H61.25ZM62.3438 42.6562C62.7764 42.6562 63.1993 42.7845 63.5591 43.0249C63.9188 43.2653 64.1992 43.6069 64.3647 44.0066C64.5303 44.4063 64.5736 44.8462 64.4892 45.2705C64.4048 45.6948 64.1965 46.0846 63.8905 46.3905C63.5846 46.6965 63.1948 46.9048 62.7705 46.9892C62.3462 47.0736 61.9063 47.0303 61.5066 46.8647C61.1069 46.6992 60.7653 46.4188 60.5249 46.0591C60.2845 45.6993 60.1562 45.2764 60.1562 44.8438C60.1562 44.2636 60.3867 43.7072 60.797 43.297C61.2072 42.8867 61.7636 42.6562 62.3438 42.6562ZM56.292 48.0058L58.3581 46.6277C58.538 47.0205 58.7754 47.3843 59.0625 47.7072V57.9688H51.4062V54.6875C51.4062 54.3974 51.291 54.1192 51.0859 53.9141C50.8808 53.709 50.6026 53.5938 50.3125 53.5938H49.2188V50.2928C51.7424 50.1979 54.1905 49.4063 56.292 48.0058ZM22.9688 50.2031C25.1073 49.9502 27.156 49.1962 28.9483 48.0025L31.0144 46.6244C31.1943 47.0172 31.4317 47.381 31.7188 47.7039V53.5938H22.9688V50.2031ZM41.0517 48.0025C42.844 49.1962 44.8927 49.9502 47.0312 50.2031V53.5938H38.2812V47.7072C38.5683 47.3843 38.8057 47.0205 38.9856 46.6277L41.0517 48.0025ZM35 47.0312C34.5674 47.0312 34.1444 46.903 33.7847 46.6626C33.425 46.4222 33.1446 46.0806 32.979 45.6809C32.8134 45.2812 32.7701 44.8413 32.8545 44.417C32.9389 43.9927 33.1473 43.6029 33.4532 43.297C33.7591 42.991 34.1489 42.7827 34.5732 42.6983C34.9976 42.6139 35.4374 42.6572 35.8371 42.8228C36.2368 42.9883 36.5785 43.2687 36.8188 43.6284C37.0592 43.9882 37.1875 44.4111 37.1875 44.8438C37.1875 45.4239 36.957 45.9803 36.5468 46.3905C36.1366 46.8008 35.5802 47.0312 35 47.0312ZM31.7188 55.7812V57.9688H20.7812V55.7812H31.7188ZM33.9062 49.0634C34.6207 49.2705 35.3793 49.2705 36.0938 49.0634V57.9688H33.9062V49.0634ZM38.2812 55.7812H49.2188V57.9688H38.2812V55.7812ZM22.9688 12.4841L27.7966 7.65625H42.2034L47.0312 12.4841V20.7812H43.75V17.5C43.75 17.2099 43.6348 16.9317 43.4296 16.7266C43.2245 16.5215 42.9463 16.4062 42.6562 16.4062H40.4688V13.125C40.4688 12.8349 40.3535 12.5567 40.1484 12.3516C39.9433 12.1465 39.6651 12.0312 39.375 12.0312H30.625C30.3349 12.0312 30.0567 12.1465 29.8516 12.3516C29.6465 12.5567 29.5312 12.8349 29.5312 13.125V16.4062H27.3438C27.0537 16.4062 26.7755 16.5215 26.5704 16.7266C26.3652 16.9317 26.25 17.2099 26.25 17.5V20.7812H22.9688V12.4841ZM38.2812 16.4062H31.7188V14.2188H38.2812V16.4062ZM41.5625 18.5938V20.7812H28.4375V18.5938H41.5625ZM20.7812 22.9688H49.2188V25.1562H20.7812V22.9688ZM47.0312 27.3438V47.973C45.3285 47.7435 43.6995 47.1326 42.2658 46.1858L39.3127 44.217C39.1661 43.1778 38.6492 42.2265 37.857 41.5382C37.0647 40.8499 36.0506 40.4708 35.0011 40.4708C33.9516 40.4708 32.9374 40.8499 32.1452 41.5382C31.353 42.2265 30.8361 43.1778 30.6895 44.217L27.7364 46.1858C26.302 47.1329 24.6723 47.7438 22.9688 47.973V27.3438H47.0312ZM20.7812 50.2928V53.5938H19.6875C19.3974 53.5938 19.1192 53.709 18.9141 53.9141C18.709 54.1192 18.5938 54.3974 18.5938 54.6875V57.9688H10.9375V47.7072C11.2246 47.3843 11.462 47.0205 11.6419 46.6277L13.708 48.0058C15.8095 49.4063 18.2576 50.1979 20.7812 50.2928ZM7.65625 42.6562C8.0889 42.6562 8.51183 42.7845 8.87156 43.0249C9.23129 43.2653 9.51167 43.6069 9.67724 44.0066C9.8428 44.4063 9.88612 44.8462 9.80172 45.2705C9.71731 45.6948 9.50897 46.0846 9.20305 46.3905C8.89712 46.6965 8.50734 46.9048 8.08301 46.9892C7.65868 47.0736 7.21884 47.0303 6.81913 46.8647C6.41942 46.6992 6.07778 46.4188 5.83741 46.0591C5.59704 45.6993 5.46875 45.2764 5.46875 44.8438C5.46875 44.2636 5.69922 43.7072 6.10945 43.297C6.51969 42.8867 7.07609 42.6562 7.65625 42.6562ZM6.5625 49.0634C6.91891 49.1619 7.28651 49.2141 7.65625 49.2188C8.02599 49.2141 8.39359 49.1619 8.75 49.0634V57.9688H6.5625V49.0634ZM66.7188 62.3438H3.28125V60.1562H66.7188V62.3438Z" fill="#C0A430"/>
<path d="M29.5312 36.0938H40.4688C40.7588 36.0938 41.037 35.9785 41.2421 35.7734C41.4473 35.5683 41.5625 35.2901 41.5625 35V30.625C41.5625 30.3349 41.4473 30.0567 41.2421 29.8516C41.037 29.6465 40.7588 29.5312 40.4688 29.5312H29.5312C29.2412 29.5312 28.963 29.6465 28.7579 29.8516C28.5527 30.0567 28.4375 30.3349 28.4375 30.625V35C28.4375 35.2901 28.5527 35.5683 28.7579 35.7734C28.963 35.9785 29.2412 36.0938 29.5312 36.0938ZM30.625 31.7188H39.375V33.9062H30.625V31.7188Z" fill="#C0A430"/>
</svg>
