<svg width="40" height="40" viewBox="0 0 40 40" fill="none" xmlns="http://www.w3.org/2000/svg">
<path fill-rule="evenodd" clip-rule="evenodd" d="M5.83325 17.1963C5.83325 9.52986 12.2397 3.33337 19.989 3.33337C27.7601 3.33337 34.1666 9.52986 34.1666 17.1963C34.1666 21.0595 32.7616 24.6461 30.4491 27.686C27.8979 31.0392 24.7535 33.9608 21.2142 36.2541C20.4041 36.7841 19.673 36.8241 18.784 36.2541C15.2245 33.9608 12.0801 31.0392 9.55075 27.686C7.23656 24.6461 5.83325 21.0595 5.83325 17.1963ZM15.3236 17.628C15.3236 20.1962 17.4193 22.2162 19.989 22.2162C22.5603 22.2162 24.6762 20.1962 24.6762 17.628C24.6762 15.0797 22.5603 12.9614 19.989 12.9614C17.4193 12.9614 15.3236 15.0797 15.3236 17.628Z" fill="#C0A430"/>
</svg>
