<svg width="50" height="50" viewBox="0 0 50 50" fill="none" xmlns="http://www.w3.org/2000/svg">
<path d="M20.2195 15.2122C20.2868 15.0878 20.3187 14.9473 20.312 14.806C20.3053 14.6647 20.2601 14.5279 20.1814 14.4104L17.0564 9.72291C16.985 9.6159 16.8884 9.52817 16.775 9.46748C16.6616 9.40679 16.5349 9.37502 16.4063 9.375H13.2813C13.1527 9.37503 13.0261 9.40679 12.9127 9.46748C12.7993 9.52817 12.7027 9.61591 12.6313 9.72291L9.50634 14.4104C9.4281 14.5281 9.38323 14.6648 9.3765 14.806C9.36977 14.9471 9.40143 15.0875 9.46811 15.2121C9.53479 15.3367 9.63401 15.4409 9.75519 15.5136C9.87638 15.5863 10.015 15.6248 10.1563 15.625H19.5313C19.6727 15.625 19.8114 15.5866 19.9326 15.5139C20.0538 15.4412 20.153 15.337 20.2195 15.2122ZM11.6166 14.0625L13.6994 10.9375H15.9882L18.071 14.0625H11.6166Z" fill="#C0A430"/>
<path d="M3.21813 21.4622C3.28467 21.587 3.38384 21.6912 3.50506 21.7639C3.62627 21.8366 3.76496 21.875 3.90631 21.875H13.2813C13.4226 21.8748 13.5613 21.8363 13.6824 21.7636C13.8036 21.6909 13.9029 21.5867 13.9695 21.4621C14.0362 21.3375 14.0679 21.1971 14.0611 21.056C14.0544 20.9148 14.0095 20.7781 13.9313 20.6604L10.8063 15.9729C10.735 15.8659 10.6383 15.7782 10.5249 15.7175C10.4115 15.6568 10.2849 15.625 10.1563 15.625H7.03131C6.9027 15.625 6.77609 15.6568 6.6627 15.7175C6.54931 15.7782 6.45266 15.8659 6.38131 15.9729L3.25631 20.6604C3.17754 20.7779 3.13236 20.9147 3.12563 21.056C3.11891 21.1973 3.15089 21.3378 3.21813 21.4622ZM7.4494 17.1875H9.73821L11.821 20.3125H5.36657L7.4494 17.1875Z" fill="#C0A430"/>
<path d="M15.7563 20.6604C15.6781 20.7781 15.6332 20.9148 15.6265 21.056C15.6198 21.1971 15.6514 21.3375 15.7181 21.4621C15.7848 21.5867 15.884 21.6909 16.0052 21.7636C16.1264 21.8363 16.265 21.8748 16.4063 21.875H25.7813C25.9227 21.8748 26.0613 21.8363 26.1825 21.7636C26.3037 21.6909 26.4029 21.5867 26.4696 21.4621C26.5362 21.3375 26.5679 21.1971 26.5612 21.056C26.5544 20.9148 26.5096 20.7781 26.4313 20.6604L23.3063 15.9729C23.235 15.8659 23.1383 15.7782 23.0249 15.7175C22.9116 15.6568 22.7849 15.625 22.6563 15.625H19.5313C19.4027 15.625 19.2761 15.6568 19.1627 15.7175C19.0493 15.7782 18.9527 15.8659 18.8813 15.9729L15.7563 20.6604ZM19.9494 17.1875H22.2382L24.3211 20.3125H17.8666L19.9494 17.1875Z" fill="#C0A430"/>
<path d="M46.0938 45.3125H4.6875V27.3438C4.6875 27.1365 4.60519 26.9378 4.45868 26.7913C4.31216 26.6448 4.11345 26.5625 3.90625 26.5625C3.69905 26.5625 3.50034 26.6448 3.35382 26.7913C3.20731 26.9378 3.125 27.1365 3.125 27.3438V46.0938C3.12494 46.1964 3.14511 46.298 3.18435 46.3928C3.22359 46.4876 3.28113 46.5738 3.35369 46.6463C3.42625 46.7189 3.5124 46.7764 3.60721 46.8157C3.70202 46.8549 3.80364 46.8751 3.90625 46.875H46.0938C46.301 46.875 46.4997 46.7927 46.6462 46.6462C46.7927 46.4997 46.875 46.301 46.875 46.0938C46.875 45.8865 46.7927 45.6878 46.6462 45.5413C46.4997 45.3948 46.301 45.3125 46.0938 45.3125Z" fill="#C0A430"/>
<path d="M6.25 30.4688V42.9688C6.25 43.176 6.33231 43.3747 6.47882 43.5212C6.62534 43.6677 6.82405 43.75 7.03125 43.75C7.23845 43.75 7.43716 43.6677 7.58368 43.5212C7.73019 43.3747 7.8125 43.176 7.8125 42.9688V30.4688C7.8125 30.2615 7.73019 30.0628 7.58368 29.9163C7.43716 29.7698 7.23845 29.6875 7.03125 29.6875C6.82405 29.6875 6.62534 29.7698 6.47882 29.9163C6.33231 30.0628 6.25 30.2615 6.25 30.4688Z" fill="#C0A430"/>
<path d="M9.375 28.9062V42.9688C9.375 43.176 9.45731 43.3747 9.60382 43.5212C9.75034 43.6677 9.94905 43.75 10.1562 43.75C10.3635 43.75 10.5622 43.6677 10.7087 43.5212C10.8552 43.3747 10.9375 43.176 10.9375 42.9688V28.9062C10.9375 28.699 10.8552 28.5003 10.7087 28.3538C10.5622 28.2073 10.3635 28.125 10.1562 28.125C9.94905 28.125 9.75034 28.2073 9.60382 28.3538C9.45731 28.5003 9.375 28.699 9.375 28.9062Z" fill="#C0A430"/>
<path d="M13.2813 26.5625C13.1786 26.5624 13.077 26.5826 12.9822 26.6218C12.8874 26.6611 12.8012 26.7186 12.7287 26.7912C12.6561 26.8637 12.5986 26.9499 12.5593 27.0447C12.5201 27.1395 12.4999 27.2411 12.5 27.3438V42.9688C12.5 43.176 12.5823 43.3747 12.7288 43.5212C12.8753 43.6677 13.074 43.75 13.2813 43.75C13.4885 43.75 13.6872 43.6677 13.8337 43.5212C13.9802 43.3747 14.0625 43.176 14.0625 42.9688V27.3438C14.0626 27.2411 14.0424 27.1395 14.0032 27.0447C13.9639 26.9499 13.9064 26.8637 13.8338 26.7912C13.7613 26.7186 13.6751 26.6611 13.5803 26.6218C13.4855 26.5826 13.3839 26.5624 13.2813 26.5625Z" fill="#C0A430"/>
<path d="M15.625 25.7812V42.9688C15.625 43.176 15.7073 43.3747 15.8538 43.5212C16.0003 43.6677 16.199 43.75 16.4062 43.75C16.6135 43.75 16.8122 43.6677 16.9587 43.5212C17.1052 43.3747 17.1875 43.176 17.1875 42.9688V25.7812C17.1875 25.574 17.1052 25.3753 16.9587 25.2288C16.8122 25.0823 16.6135 25 16.4062 25C16.199 25 16.0003 25.0823 15.8538 25.2288C15.7073 25.3753 15.625 25.574 15.625 25.7812Z" fill="#C0A430"/>
<path d="M18.75 25.7812V42.9688C18.75 43.176 18.8323 43.3747 18.9788 43.5212C19.1253 43.6677 19.324 43.75 19.5312 43.75C19.7385 43.75 19.9372 43.6677 20.0837 43.5212C20.2302 43.3747 20.3125 43.176 20.3125 42.9688V25.7812C20.3125 25.574 20.2302 25.3753 20.0837 25.2288C19.9372 25.0823 19.7385 25 19.5312 25C19.324 25 19.1253 25.0823 18.9788 25.2288C18.8323 25.3753 18.75 25.574 18.75 25.7812Z" fill="#C0A430"/>
<path d="M21.875 27.3438V42.9688C21.875 43.176 21.9573 43.3747 22.1038 43.5212C22.2503 43.6677 22.449 43.75 22.6562 43.75C22.8635 43.75 23.0622 43.6677 23.2087 43.5212C23.3552 43.3747 23.4375 43.176 23.4375 42.9688V27.3438C23.4375 27.1365 23.3552 26.9378 23.2087 26.7913C23.0622 26.6448 22.8635 26.5625 22.6562 26.5625C22.449 26.5625 22.2503 26.6448 22.1038 26.7913C21.9573 26.9378 21.875 27.1365 21.875 27.3438Z" fill="#C0A430"/>
<path d="M25.7813 28.125C25.6786 28.1249 25.577 28.1451 25.4822 28.1843C25.3874 28.2236 25.3012 28.2811 25.2287 28.3537C25.1561 28.4262 25.0986 28.5124 25.0593 28.6072C25.0201 28.702 24.9999 28.8036 25 28.9063V42.9688C25 43.176 25.0823 43.3747 25.2288 43.5212C25.3753 43.6677 25.574 43.75 25.7813 43.75C25.9885 43.75 26.1872 43.6677 26.3337 43.5212C26.4802 43.3747 26.5625 43.176 26.5625 42.9688V28.9063C26.5626 28.8036 26.5424 28.702 26.5032 28.6072C26.4639 28.5124 26.4064 28.4262 26.3338 28.3537C26.2613 28.2811 26.1751 28.2236 26.0803 28.1843C25.9855 28.1451 25.8839 28.1249 25.7813 28.125Z" fill="#C0A430"/>
<path d="M29.6875 42.9688V30.4688C29.6875 30.2615 29.6052 30.0628 29.4587 29.9163C29.3122 29.7698 29.1135 29.6875 28.9062 29.6875C28.699 29.6875 28.5003 29.7698 28.3538 29.9163C28.2073 30.0628 28.125 30.2615 28.125 30.4688V42.9688C28.125 43.176 28.2073 43.3747 28.3538 43.5212C28.5003 43.6677 28.699 43.75 28.9062 43.75C29.1135 43.75 29.3122 43.6677 29.4587 43.5212C29.6052 43.3747 29.6875 43.176 29.6875 42.9688Z" fill="#C0A430"/>
<path d="M32.8125 42.9688V28.9062C32.8125 28.699 32.7302 28.5003 32.5837 28.3538C32.4372 28.2073 32.2385 28.125 32.0312 28.125C31.824 28.125 31.6253 28.2073 31.4788 28.3538C31.3323 28.5003 31.25 28.699 31.25 28.9062V42.9688C31.25 43.176 31.3323 43.3747 31.4788 43.5212C31.6253 43.6677 31.824 43.75 32.0312 43.75C32.2385 43.75 32.4372 43.6677 32.5837 43.5212C32.7302 43.3747 32.8125 43.176 32.8125 42.9688Z" fill="#C0A430"/>
<path d="M35.9375 42.9688V27.3438C35.9375 27.1365 35.8552 26.9378 35.7087 26.7913C35.5622 26.6448 35.3635 26.5625 35.1562 26.5625C34.949 26.5625 34.7503 26.6448 34.6038 26.7913C34.4573 26.9378 34.375 27.1365 34.375 27.3438V42.9688C34.375 43.176 34.4573 43.3747 34.6038 43.5212C34.7503 43.6677 34.949 43.75 35.1562 43.75C35.3635 43.75 35.5622 43.6677 35.7087 43.5212C35.8552 43.3747 35.9375 43.176 35.9375 42.9688Z" fill="#C0A430"/>
<path d="M39.0625 42.9688V25.7812C39.0625 25.574 38.9802 25.3753 38.8337 25.2288C38.6872 25.0823 38.4885 25 38.2812 25C38.074 25 37.8753 25.0823 37.7288 25.2288C37.5823 25.3753 37.5 25.574 37.5 25.7812V42.9688C37.5 43.176 37.5823 43.3747 37.7288 43.5212C37.8753 43.6677 38.074 43.75 38.2812 43.75C38.4885 43.75 38.6872 43.6677 38.8337 43.5212C38.9802 43.3747 39.0625 43.176 39.0625 42.9688Z" fill="#C0A430"/>
<path d="M42.1875 42.9688V28.9062C42.1875 28.699 42.1052 28.5003 41.9587 28.3538C41.8122 28.2073 41.6135 28.125 41.4062 28.125C41.199 28.125 41.0003 28.2073 40.8538 28.3538C40.7073 28.5003 40.625 28.699 40.625 28.9062V42.9688C40.625 43.176 40.7073 43.3747 40.8538 43.5212C41.0003 43.6677 41.199 43.75 41.4062 43.75C41.6135 43.75 41.8122 43.6677 41.9587 43.5212C42.1052 43.3747 42.1875 43.176 42.1875 42.9688Z" fill="#C0A430"/>
<path d="M45.3125 42.9688V25.7812C45.3125 25.574 45.2302 25.3753 45.0837 25.2288C44.9372 25.0823 44.7385 25 44.5312 25C44.324 25 44.1253 25.0823 43.9788 25.2288C43.8323 25.3753 43.75 25.574 43.75 25.7812V42.9688C43.75 43.176 43.8323 43.3747 43.9788 43.5212C44.1253 43.6677 44.324 43.75 44.5312 43.75C44.7385 43.75 44.9372 43.6677 45.0837 43.5212C45.2302 43.3747 45.3125 43.176 45.3125 42.9688Z" fill="#C0A430"/>
<path d="M7.03125 6.25C6.92864 6.24994 6.82702 6.27011 6.73221 6.30935C6.6374 6.34859 6.55125 6.40613 6.47869 6.47869C6.40613 6.55125 6.34859 6.6374 6.30935 6.73221C6.27011 6.82702 6.24994 6.92864 6.25 7.03125V7.8125H5.46875C5.26155 7.8125 5.06284 7.89481 4.91632 8.04132C4.76981 8.18784 4.6875 8.38655 4.6875 8.59375C4.6875 8.80095 4.76981 8.99966 4.91632 9.14618C5.06284 9.29269 5.26155 9.375 5.46875 9.375H6.25V10.1562C6.25 10.3635 6.33231 10.5622 6.47882 10.7087C6.62534 10.8552 6.82405 10.9375 7.03125 10.9375C7.23845 10.9375 7.43716 10.8552 7.58368 10.7087C7.73019 10.5622 7.8125 10.3635 7.8125 10.1562V9.375H8.59375C8.80095 9.375 8.99966 9.29269 9.14618 9.14618C9.29269 8.99966 9.375 8.80095 9.375 8.59375C9.375 8.38655 9.29269 8.18784 9.14618 8.04132C8.99966 7.89481 8.80095 7.8125 8.59375 7.8125H7.8125V7.03125C7.81256 6.92864 7.79239 6.82702 7.75315 6.73221C7.71391 6.6374 7.65637 6.55125 7.58381 6.47869C7.51125 6.40613 7.4251 6.34859 7.33029 6.30935C7.23548 6.27011 7.13386 6.24994 7.03125 6.25Z" fill="#C0A430"/>
<path d="M11.7188 3.125C11.6161 3.12494 11.5145 3.14511 11.4197 3.18435C11.3249 3.22359 11.2387 3.28113 11.1662 3.35369C11.0936 3.42625 11.0361 3.5124 10.9968 3.60721C10.9576 3.70202 10.9374 3.80364 10.9375 3.90625V4.6875H10.1562C9.94905 4.6875 9.75034 4.76981 9.60382 4.91632C9.45731 5.06284 9.375 5.26155 9.375 5.46875C9.375 5.67595 9.45731 5.87466 9.60382 6.02118C9.75034 6.16769 9.94905 6.25 10.1562 6.25H10.9375V7.03125C10.9375 7.23845 11.0198 7.43716 11.1663 7.58368C11.3128 7.73019 11.5115 7.8125 11.7188 7.8125C11.926 7.8125 12.1247 7.73019 12.2712 7.58368C12.4177 7.43716 12.5 7.23845 12.5 7.03125V6.25H13.2812C13.4885 6.25 13.6872 6.16769 13.8337 6.02118C13.9802 5.87466 14.0625 5.67595 14.0625 5.46875C14.0625 5.26155 13.9802 5.06284 13.8337 4.91632C13.6872 4.76981 13.4885 4.6875 13.2812 4.6875H12.5V3.90625C12.5001 3.80364 12.4799 3.70202 12.4407 3.60721C12.4014 3.5124 12.3439 3.42625 12.2713 3.35369C12.1988 3.28113 12.1126 3.22359 12.0178 3.18435C11.923 3.14511 11.8214 3.12494 11.7188 3.125Z" fill="#C0A430"/>
<path d="M17.9688 3.125C17.8661 3.12494 17.7645 3.14511 17.6697 3.18435C17.5749 3.22359 17.4887 3.28113 17.4162 3.35369C17.3436 3.42625 17.2861 3.5124 17.2468 3.60721C17.2076 3.70202 17.1874 3.80364 17.1875 3.90625V4.6875H16.4062C16.199 4.6875 16.0003 4.76981 15.8538 4.91632C15.7073 5.06284 15.625 5.26155 15.625 5.46875C15.625 5.67595 15.7073 5.87466 15.8538 6.02118C16.0003 6.16769 16.199 6.25 16.4062 6.25H17.1875V7.03125C17.1875 7.23845 17.2698 7.43716 17.4163 7.58368C17.5628 7.73019 17.7615 7.8125 17.9688 7.8125C18.176 7.8125 18.3747 7.73019 18.5212 7.58368C18.6677 7.43716 18.75 7.23845 18.75 7.03125V6.25H19.5312C19.7385 6.25 19.9372 6.16769 20.0837 6.02118C20.2302 5.87466 20.3125 5.67595 20.3125 5.46875C20.3125 5.26155 20.2302 5.06284 20.0837 4.91632C19.9372 4.76981 19.7385 4.6875 19.5312 4.6875H18.75V3.90625C18.7501 3.80364 18.7299 3.70202 18.6907 3.60721C18.6514 3.5124 18.5939 3.42625 18.5213 3.35369C18.4488 3.28113 18.3626 3.22359 18.2678 3.18435C18.173 3.14511 18.0714 3.12494 17.9688 3.125Z" fill="#C0A430"/>
<path d="M22.6562 7.8125C22.5536 7.81244 22.452 7.83261 22.3572 7.87185C22.2624 7.91109 22.1762 7.96863 22.1037 8.04119C22.0311 8.11375 21.9736 8.1999 21.9343 8.29471C21.8951 8.38952 21.8749 8.49114 21.875 8.59375V9.375H21.0938C20.8865 9.375 20.6878 9.45731 20.5413 9.60382C20.3948 9.75034 20.3125 9.94905 20.3125 10.1563C20.3125 10.3635 20.3948 10.5622 20.5413 10.7087C20.6878 10.8552 20.8865 10.9375 21.0938 10.9375H21.875V11.7188C21.875 11.926 21.9573 12.1247 22.1038 12.2712C22.2503 12.4177 22.449 12.5 22.6562 12.5C22.8635 12.5 23.0622 12.4177 23.2087 12.2712C23.3552 12.1247 23.4375 11.926 23.4375 11.7188V10.9375H24.2188C24.426 10.9375 24.6247 10.8552 24.7712 10.7087C24.9177 10.5622 25 10.3635 25 10.1563C25 9.94905 24.9177 9.75034 24.7712 9.60382C24.6247 9.45731 24.426 9.375 24.2188 9.375H23.4375V8.59375C23.4376 8.49114 23.4174 8.38952 23.3782 8.29471C23.3389 8.1999 23.2814 8.11375 23.2088 8.04119C23.1363 7.96863 23.0501 7.91109 22.9553 7.87185C22.8605 7.83261 22.7589 7.81244 22.6562 7.8125Z" fill="#C0A430"/>
<path d="M46.0938 10.9375H36.7188C36.5115 10.9375 36.3128 11.0198 36.1663 11.1663C36.0198 11.3128 35.9375 11.5115 35.9375 11.7188C35.9375 11.926 36.0198 12.1247 36.1663 12.2712C36.3128 12.4177 36.5115 12.5 36.7188 12.5H46.0938C46.301 12.5 46.4997 12.4177 46.6462 12.2712C46.7927 12.1247 46.875 11.926 46.875 11.7188C46.875 11.5115 46.7927 11.3128 46.6462 11.1663C46.4997 11.0198 46.301 10.9375 46.0938 10.9375Z" fill="#C0A430"/>
<path d="M46.0938 4.6875H32.0312C31.824 4.6875 31.6253 4.76981 31.4788 4.91632C31.3323 5.06284 31.25 5.26155 31.25 5.46875C31.25 5.67595 31.3323 5.87466 31.4788 6.02118C31.6253 6.16769 31.824 6.25 32.0312 6.25H46.0938C46.301 6.25 46.4997 6.16769 46.6462 6.02118C46.7927 5.87466 46.875 5.67595 46.875 5.46875C46.875 5.26155 46.7927 5.06284 46.6462 4.91632C46.4997 4.76981 46.301 4.6875 46.0938 4.6875Z" fill="#C0A430"/>
<path d="M46.0938 7.8125H32.0312C31.824 7.8125 31.6253 7.89481 31.4788 8.04132C31.3323 8.18784 31.25 8.38655 31.25 8.59375C31.25 8.80095 31.3323 8.99966 31.4788 9.14618C31.6253 9.29269 31.824 9.375 32.0312 9.375H46.0938C46.301 9.375 46.4997 9.29269 46.6462 9.14618C46.7927 8.99966 46.875 8.80095 46.875 8.59375C46.875 8.38655 46.7927 8.18784 46.6462 8.04132C46.4997 7.89481 46.301 7.8125 46.0938 7.8125Z" fill="#C0A430"/>
</svg>
