<svg width="28" height="28" viewBox="0 0 28 28" fill="none" xmlns="http://www.w3.org/2000/svg">
<path d="M14 28C21.732 28 28 21.732 28 14C28 6.26801 21.732 0 14 0C6.26801 0 0 6.26801 0 14C0 21.732 6.26801 28 14 28Z" fill="#DA0000"/>
<path d="M22.9434 9.50744C22.7277 8.70477 22.0971 8.07218 21.2924 7.85648C19.8364 7.46655 14 7.46655 14 7.46655C14 7.46655 8.16352 7.46655 6.70752 7.85648C5.90485 8.07218 5.27226 8.7027 5.05655 9.50744C4.66663 10.9634 4.66663 13.9999 4.66663 13.9999C4.66663 13.9999 4.66663 17.0363 5.05655 18.4923C5.27018 19.295 5.90277 19.9276 6.70752 20.1433C8.16352 20.5332 14 20.5332 14 20.5332C14 20.5332 19.8364 20.5332 21.2924 20.1433C22.0951 19.9276 22.7277 19.2971 22.9434 18.4923C23.3333 17.0363 23.3333 13.9999 23.3333 13.9999C23.3333 13.9999 23.3333 10.9634 22.9434 9.50744ZM12.1333 16.7999V11.1999L16.9825 13.9999L12.1333 16.7999Z" fill="white"/>
</svg>
