<svg width="70" height="70" viewBox="0 0 70 70" fill="none" xmlns="http://www.w3.org/2000/svg">
<path d="M35 18.5938C35.2901 18.5938 35.5683 18.4785 35.7734 18.2734C35.9785 18.0683 36.0938 17.7901 36.0938 17.5V12.0312C36.0938 11.7412 35.9785 11.463 35.7734 11.2579C35.5683 11.0527 35.2901 10.9375 35 10.9375C34.7099 10.9375 34.4317 11.0527 34.2266 11.2579C34.0215 11.463 33.9062 11.7412 33.9062 12.0312V17.5C33.9062 17.7901 34.0215 18.0683 34.2266 18.2734C34.4317 18.4785 34.7099 18.5938 35 18.5938Z" fill="#C0A430"/>
<path d="M66.5752 60.7578L63.4375 59.4248V58.6619C64.1428 57.8649 64.5319 56.8373 64.5313 55.773V54.5549C64.8903 54.6355 65.257 54.6773 65.625 54.6793C65.9151 54.6793 66.1933 54.5641 66.3984 54.3589C66.6035 54.1538 66.7188 53.8756 66.7188 53.5855V51.9449C66.7169 50.3501 66.0825 48.8211 64.9547 47.6933C63.827 46.5656 62.298 45.9312 60.7031 45.9293H59.6094C58.0145 45.9312 56.4855 46.5656 55.3578 47.6933C54.23 48.8211 53.5956 50.3501 53.5938 51.9449V53.5855C53.5939 53.8697 53.7045 54.1427 53.9022 54.3468C54.0999 54.551 54.3693 54.6702 54.6533 54.6793C54.6738 54.6793 55.3697 54.6752 55.7813 54.6465V55.773C55.7807 56.8373 56.1697 57.8649 56.875 58.6619V59.4248L53.7373 60.7578C53.1784 60.9948 52.6839 61.3615 52.2948 61.8275C51.9056 62.2934 51.6329 62.8453 51.4992 63.4375H36.0938V54.6875H38.8281C39.8431 54.6864 40.8161 54.2827 41.5338 53.565C42.2515 52.8474 42.6551 51.8743 42.6563 50.8594V50.3125H44.8438C45.1338 50.3125 45.412 50.1973 45.6172 49.9921C45.8223 49.787 45.9375 49.5088 45.9375 49.2188V43.75C46.2276 43.75 46.5058 43.6348 46.7109 43.4296C46.916 43.2245 47.0313 42.9463 47.0313 42.6562V39.375C47.0313 39.0849 46.916 38.8067 46.7109 38.6016C46.5058 38.3965 46.2276 38.2812 45.9375 38.2812H43.75V36.0979C46.7239 34.5113 49.2107 32.1464 50.9446 29.256C52.6784 26.3655 53.5941 23.0581 53.5938 19.6875C53.5938 9.43496 45.2525 1.09375 35 1.09375C24.7475 1.09375 16.4063 9.43496 16.4063 19.6875C16.4059 23.0581 17.3216 26.3655 19.0554 29.256C20.7893 32.1464 23.2761 34.5113 26.25 36.0979V38.2812H24.0625C23.7724 38.2812 23.4942 38.3965 23.2891 38.6016C23.084 38.8067 22.9688 39.0849 22.9688 39.375V42.6562C22.9688 42.9463 23.084 43.2245 23.2891 43.4296C23.4942 43.6348 23.7724 43.75 24.0625 43.75V49.2188C24.0625 49.5088 24.1777 49.787 24.3829 49.9921C24.588 50.1973 24.8662 50.3125 25.1563 50.3125H27.3438V50.8594C27.3449 51.8743 27.7486 52.8474 28.4662 53.565C29.1839 54.2827 30.1569 54.6864 31.1719 54.6875H33.9063V63.4375H18.5008C18.3671 62.8453 18.0944 62.2934 17.7053 61.8275C17.3161 61.3615 16.8216 60.9948 16.2627 60.7578L13.125 59.4248V58.6619C13.8303 57.8649 14.2194 56.8373 14.2188 55.773V51.398C14.2188 47.7695 12.3785 45.9293 8.75 45.9293H5.46875C5.17867 45.9293 4.90047 46.0445 4.69535 46.2496C4.49024 46.4548 4.375 46.733 4.375 47.023V48.1168C4.375 49.9816 4.49258 51.5812 5.46875 52.5602V55.773C5.46815 56.8373 5.85722 57.8649 6.5625 58.6619V59.4248L3.42481 60.7578C2.73294 61.0509 2.14283 61.5414 1.72822 62.1681C1.31362 62.7947 1.09294 63.5297 1.09375 64.2811V67.8043C1.09375 68.0944 1.20899 68.3726 1.4141 68.5777C1.61922 68.7828 1.89742 68.898 2.1875 68.898H17.5C17.7901 68.898 18.0683 68.7828 18.2734 68.5777C18.4785 68.3726 18.5938 68.0944 18.5938 67.8043V65.625H51.4063V67.8043C51.4063 68.0944 51.5215 68.3726 51.7266 68.5777C51.9317 68.7828 52.2099 68.898 52.5 68.898H67.8125C68.1026 68.898 68.3808 68.7828 68.5859 68.5777C68.791 68.3726 68.9063 68.0944 68.9063 67.8043V64.2811C68.9071 63.5297 68.6864 62.7947 68.2718 62.1681C67.8572 61.5414 67.2671 61.0509 66.5752 60.7578ZM8.75 48.1168C11.1727 48.1168 12.0313 48.9754 12.0313 51.398H8.75C7.23926 51.398 7.00684 51.0221 6.90703 50.8621C6.58848 50.348 6.5625 49.2242 6.5625 48.1168H8.75ZM12.0313 53.5855V55.773C12.0313 56.3532 11.8008 56.9096 11.3905 57.3198C10.9803 57.7301 10.4239 57.9605 9.84375 57.9605C9.26359 57.9605 8.70719 57.7301 8.29696 57.3198C7.88672 56.9096 7.65625 56.3532 7.65625 55.773V53.5172C8.01887 53.5646 8.38429 53.5875 8.75 53.5855H12.0313ZM16.4063 66.7105H15.3125V65.7535C15.3125 65.4634 15.1973 65.1852 14.9922 64.9801C14.787 64.775 14.5088 64.6598 14.2188 64.6598C13.9287 64.6598 13.6505 64.775 13.4454 64.9801C13.2402 65.1852 13.125 65.4634 13.125 65.7535V66.7105H6.5625V65.7535C6.5625 65.4634 6.44727 65.1852 6.24215 64.9801C6.03703 64.775 5.75883 64.6598 5.46875 64.6598C5.17867 64.6598 4.90047 64.775 4.69535 64.9801C4.49024 65.1852 4.375 65.4634 4.375 65.7535V66.7105H3.28125V64.2811C3.2811 63.9591 3.37581 63.6442 3.55356 63.3758C3.7313 63.1074 3.9842 62.8972 4.28067 62.7717L8.08418 61.1543C8.28168 61.0704 8.45013 60.9303 8.56854 60.7514C8.68694 60.5724 8.75005 60.3626 8.75 60.148V60.01C9.46755 60.1941 10.22 60.1941 10.9375 60.01V60.148C10.9375 60.3626 11.0006 60.5724 11.119 60.7514C11.2374 60.9303 11.4058 61.0704 11.6033 61.1543L15.4068 62.7717C15.7033 62.8972 15.9562 63.1074 16.1339 63.3758C16.3117 63.6442 16.4064 63.9591 16.4063 64.2811V66.7105ZM21.1586 28.499C19.3744 25.6944 18.4843 22.4139 18.6062 19.092C18.7281 15.7702 19.8562 12.5638 21.8412 9.89744C23.8262 7.23111 26.5743 5.23069 29.7216 4.16113C32.8689 3.09158 36.2669 3.00337 39.4654 3.90818C42.664 4.81299 45.5122 6.66812 47.6329 9.22787C49.7535 11.7876 51.0465 14.9312 51.3406 18.2422C51.6347 21.5533 50.916 24.8755 49.2797 27.769C47.6434 30.6624 45.1667 32.9905 42.1777 34.4449C41.9934 34.5346 41.8379 34.6744 41.7291 34.8482C41.6203 35.022 41.5626 35.2229 41.5625 35.4279V38.2812H40.4688V15.3125C40.4688 15.0224 40.3535 14.7442 40.1484 14.5391C39.9433 14.334 39.6651 14.2188 39.375 14.2188C39.0849 14.2188 38.8067 14.334 38.6016 14.5391C38.3965 14.7442 38.2813 15.0224 38.2813 15.3125V38.2812H31.7188V15.3125C31.7188 15.0224 31.6035 14.7442 31.3984 14.5391C31.1933 14.334 30.9151 14.2188 30.625 14.2188C30.3349 14.2188 30.0567 14.334 29.8516 14.5391C29.6465 14.7442 29.5313 15.0224 29.5313 15.3125V38.2812H28.4375V35.4279C28.4374 35.2229 28.3797 35.022 28.2709 34.8482C28.1621 34.6744 28.0067 34.5346 27.8223 34.4449C25.0957 33.1147 22.7896 31.057 21.1586 28.499ZM25.1563 40.4688H44.8438V41.5625H25.1563V40.4688ZM36.7637 43.75L36.3986 44.8438H33.6014L33.2363 43.75H36.7637ZM26.25 48.125V43.75H30.9299L31.7748 46.2834C31.8474 46.5012 31.9867 46.6906 32.1729 46.8248C32.3592 46.959 32.5829 47.0313 32.8125 47.0312H37.1875C37.4171 47.0313 37.6408 46.959 37.8271 46.8248C38.0133 46.6906 38.1526 46.5012 38.2252 46.2834L39.0701 43.75H43.75V48.125H26.25ZM31.1719 52.5C30.7369 52.4996 30.3198 52.3267 30.0122 52.0191C29.7046 51.7115 29.5316 51.2944 29.5313 50.8594V50.3125H40.4688V50.8594C40.4684 51.2944 40.2954 51.7115 39.9878 52.0191C39.6802 52.3267 39.2631 52.4996 38.8281 52.5H31.1719ZM55.7813 52.4521V51.9449C55.7824 50.93 56.1861 49.9569 56.9037 49.2393C57.6214 48.5216 58.5944 48.1179 59.6094 48.1168H60.7031C61.7181 48.1179 62.6911 48.5216 63.4088 49.2393C64.1265 49.9569 64.5301 50.93 64.5313 51.9449V52.2867C63.432 51.908 62.3916 51.1027 61.9979 50.7363C61.7905 50.5423 61.5159 50.4364 61.232 50.441C60.9481 50.4456 60.6771 50.5603 60.4762 50.7609C59.2484 51.99 57.0773 52.3482 55.7813 52.4521ZM62.3438 53.6771V55.773C62.3438 56.3532 62.1133 56.9096 61.7031 57.3198C61.2928 57.7301 60.7364 57.9605 60.1563 57.9605C59.5761 57.9605 59.0197 57.7301 58.6095 57.3198C58.1992 56.9096 57.9688 56.3532 57.9688 55.773V54.3293C59.0625 54.0818 60.2533 53.6635 61.2527 52.9553C61.6017 53.2174 61.966 53.4585 62.3438 53.6771ZM66.7188 66.7105H65.625V65.7535C65.625 65.4634 65.5098 65.1852 65.3046 64.9801C65.0995 64.775 64.8213 64.6598 64.5313 64.6598C64.2412 64.6598 63.963 64.775 63.7579 64.9801C63.5527 65.1852 63.4375 65.4634 63.4375 65.7535V66.7105H56.875V65.7535C56.875 65.4634 56.7598 65.1852 56.5547 64.9801C56.3495 64.775 56.0713 64.6598 55.7813 64.6598C55.4912 64.6598 55.213 64.775 55.0079 64.9801C54.8027 65.1852 54.6875 65.4634 54.6875 65.7535V66.7105H53.5938V64.2811C53.5936 63.9591 53.6883 63.6442 53.8661 63.3758C54.0438 63.1074 54.2967 62.8972 54.5932 62.7717L58.3967 61.1543C58.5942 61.0704 58.7626 60.9303 58.881 60.7514C58.9994 60.5724 59.0625 60.3626 59.0625 60.148V60.01C59.78 60.1941 60.5325 60.1941 61.25 60.01V60.148C61.25 60.3626 61.3131 60.5724 61.4315 60.7514C61.5499 60.9303 61.7183 61.0704 61.9158 61.1543L65.7193 62.7717C66.0158 62.8972 66.2687 63.1074 66.4464 63.3758C66.6242 63.6442 66.7189 63.9591 66.7188 64.2811V66.7105Z" fill="#C0A430"/>
</svg>
