<svg width="50" height="50" viewBox="0 0 50 50" fill="none" xmlns="http://www.w3.org/2000/svg">
<g clip-path="url(#clip0_1_263)">
<path d="M45.3125 32.0312H40.625C40.4178 32.0312 40.2191 32.1136 40.0726 32.2601C39.9261 32.4066 39.8438 32.6053 39.8438 32.8125V37.5C39.8438 37.7072 39.9261 37.9059 40.0726 38.0524C40.2191 38.1989 40.4178 38.2812 40.625 38.2812H45.3125C45.5197 38.2812 45.7184 38.1989 45.8649 38.0524C46.0114 37.9059 46.0938 37.7072 46.0938 37.5V32.8125C46.0938 32.6053 46.0114 32.4066 45.8649 32.2601C45.7184 32.1136 45.5197 32.0312 45.3125 32.0312ZM44.5312 36.7188H41.4062V33.5938H44.5312V36.7188Z" fill="#C0A430"/>
<path d="M31.25 29.6875H33.5938V31.25H31.25V29.6875Z" fill="#C0A430"/>
<path d="M27.3438 29.6875H29.6875V31.25H27.3438V29.6875Z" fill="#C0A430"/>
<path d="M23.4375 29.6875H25.7812V31.25H23.4375V29.6875Z" fill="#C0A430"/>
<path d="M19.5312 29.6875H21.875V31.25H19.5312V29.6875Z" fill="#C0A430"/>
<path d="M32.8125 33.5938H28.125C27.9178 33.5938 27.7191 33.6761 27.5726 33.8226C27.4261 33.9691 27.3438 34.1678 27.3438 34.375V37.5C27.3438 37.7072 27.4261 37.9059 27.5726 38.0524C27.7191 38.1989 27.9178 38.2812 28.125 38.2812H32.8125C33.0197 38.2812 33.2184 38.1989 33.3649 38.0524C33.5114 37.9059 33.5938 37.7072 33.5938 37.5V34.375C33.5938 34.1678 33.5114 33.9691 33.3649 33.8226C33.2184 33.6761 33.0197 33.5938 32.8125 33.5938ZM32.0312 36.7188H28.9062V35.1562H32.0312V36.7188Z" fill="#C0A430"/>
<path d="M25 33.5938H20.3125C20.1053 33.5938 19.9066 33.6761 19.7601 33.8226C19.6136 33.9691 19.5312 34.1678 19.5312 34.375V37.5C19.5312 37.7072 19.6136 37.9059 19.7601 38.0524C19.9066 38.1989 20.1053 38.2812 20.3125 38.2812H25C25.2072 38.2812 25.4059 38.1989 25.5524 38.0524C25.6989 37.9059 25.7812 37.7072 25.7812 37.5V34.375C25.7812 34.1678 25.6989 33.9691 25.5524 33.8226C25.4059 33.6761 25.2072 33.5938 25 33.5938ZM24.2188 36.7188H21.0938V35.1562H24.2188V36.7188Z" fill="#C0A430"/>
<path d="M46.0938 19.5312H28.2812L26.5625 16.9531V1.5625C26.5625 1.3553 26.4802 1.15659 26.3337 1.01007C26.1872 0.86356 25.9885 0.78125 25.7812 0.78125H8.59375C8.38655 0.78125 8.18784 0.86356 8.04132 1.01007C7.89481 1.15659 7.8125 1.3553 7.8125 1.5625V16.9531L3.25625 23.7852C3.17089 23.9137 3.12524 24.0645 3.125 24.2188V44.5312H1.5625C1.3553 44.5312 1.15659 44.6136 1.01007 44.7601C0.86356 44.9066 0.78125 45.1053 0.78125 45.3125V48.4375C0.78125 48.6447 0.86356 48.8434 1.01007 48.9899C1.15659 49.1364 1.3553 49.2188 1.5625 49.2188H32.8125C33.0197 49.2188 33.2184 49.1364 33.3649 48.9899C33.5114 48.8434 33.5938 48.6447 33.5938 48.4375V45.3125C33.5938 45.1053 33.5114 44.9066 33.3649 44.7601C33.2184 44.6136 33.0197 44.5312 32.8125 44.5312H31.25V41.4062H46.0938C46.9226 41.4062 47.7174 41.077 48.3035 40.491C48.8895 39.9049 49.2188 39.1101 49.2188 38.2812V22.6562C49.2188 21.8274 48.8895 21.0326 48.3035 20.4465C47.7174 19.8605 46.9226 19.5312 46.0938 19.5312ZM47.6562 22.6562H17.9688C17.9688 22.2418 18.1334 21.8444 18.4264 21.5514C18.7194 21.2584 19.1168 21.0938 19.5312 21.0938H46.0938C46.5082 21.0938 46.9056 21.2584 47.1986 21.5514C47.4916 21.8444 47.6562 22.2418 47.6562 22.6562ZM17.9688 24.2188H47.6562V26.5625H17.9688V24.2188ZM25 2.34375V16.4062H9.375V2.34375H25ZM9.01172 17.9688H25.3633L26.4062 19.5312H19.5312C18.7024 19.5312 17.9076 19.8605 17.3215 20.4465C16.7355 21.0326 16.4062 21.8274 16.4062 22.6562V23.4375H5.36562L9.01172 17.9688ZM32.0312 47.6562H2.34375V46.0938H32.0312V47.6562ZM29.6875 44.5312H4.6875V25H16.4062V38.2812C16.4062 39.1101 16.7355 39.9049 17.3215 40.491C17.9076 41.077 18.7024 41.4062 19.5312 41.4062H29.6875V44.5312ZM46.0938 39.8438H19.5312C19.1168 39.8438 18.7194 39.6791 18.4264 39.3861C18.1334 39.0931 17.9688 38.6957 17.9688 38.2812V28.125H47.6562V38.2812C47.6562 38.6957 47.4916 39.0931 47.1986 39.3861C46.9056 39.6791 46.5082 39.8438 46.0938 39.8438Z" fill="#C0A430"/>
<path d="M13.2812 19.5312H14.8438V21.0938H13.2812V19.5312Z" fill="#C0A430"/>
<path d="M10.1562 19.5312H11.7188V21.0938H10.1562V19.5312Z" fill="#C0A430"/>
<path d="M14.0625 26.5625H7.03125C6.82405 26.5625 6.62534 26.6448 6.47882 26.7913C6.33231 26.9378 6.25 27.1365 6.25 27.3438V30.4688C6.25 30.676 6.33231 30.8747 6.47882 31.0212C6.62534 31.1677 6.82405 31.25 7.03125 31.25H14.0625C14.2697 31.25 14.4684 31.1677 14.6149 31.0212C14.7614 30.8747 14.8438 30.676 14.8438 30.4688V27.3438C14.8438 27.1365 14.7614 26.9378 14.6149 26.7913C14.4684 26.6448 14.2697 26.5625 14.0625 26.5625ZM13.2812 29.6875H7.8125V28.125H13.2812V29.6875Z" fill="#C0A430"/>
<path d="M11.7188 14.8438H22.6562C22.8635 14.8438 23.0622 14.7614 23.2087 14.6149C23.3552 14.4684 23.4375 14.2697 23.4375 14.0625V4.6875C23.4375 4.4803 23.3552 4.28159 23.2087 4.13507C23.0622 3.98856 22.8635 3.90625 22.6562 3.90625H11.7188C11.5115 3.90625 11.3128 3.98856 11.1663 4.13507C11.0198 4.28159 10.9375 4.4803 10.9375 4.6875V14.0625C10.9375 14.2697 11.0198 14.4684 11.1663 14.6149C11.3128 14.7614 11.5115 14.8438 11.7188 14.8438ZM12.5 5.46875H21.875V13.2812H12.5V5.46875Z" fill="#C0A430"/>
</g>
<defs>
<clipPath id="clip0_1_263">
<rect width="50" height="50" fill="white"/>
</clipPath>
</defs>
</svg>
