<svg width="36" height="48" viewBox="0 0 36 48" fill="none" xmlns="http://www.w3.org/2000/svg">
<path d="M35.1182 31.0318C35.025 30.8704 34.8531 30.7709 34.6667 30.7709H32.5177C32.0865 30.7709 31.6714 30.9506 31.3787 31.2641C29.1578 33.6407 26.2516 36.3761 24.6729 37.0209H20.6042C20.424 37.0209 20.2656 36.9292 20.1719 36.7901C21.4318 36.2068 23.9073 35.1141 24.8682 34.9287C26.049 34.7042 26.8287 33.9105 26.8542 32.9073C26.8677 32.3667 26.6583 31.8469 26.2651 31.4433C25.8484 31.0167 25.2729 30.7714 24.6844 30.7714H21.125C21.0625 30.7714 21.0005 30.7823 20.9417 30.8042C20.4677 30.9823 9.56667 35.0855 5.08438 37.9526L3.7849 36.6532C3.58126 36.4495 3.25209 36.4495 3.04844 36.6532L0.965112 38.7365C0.761466 38.9401 0.761466 39.2693 0.965112 39.473L9.29844 47.8063C9.40001 47.9073 9.53334 47.9584 9.66667 47.9584C9.80001 47.9584 9.93334 47.9073 10.0349 47.8058L12.1182 45.7224C12.3219 45.5188 12.3219 45.1896 12.1182 44.986L10.6651 43.5329C14.2927 42.9526 16.9073 42.9396 19.2333 42.9292C20.7734 42.9224 22.2287 42.9162 23.7854 42.7469C28.8635 42.1933 34.8641 31.9881 35.1167 31.5537C35.2104 31.3927 35.2109 31.1938 35.1182 31.0318ZM11.0135 45.3542L9.66667 46.7011L2.0698 39.1042L3.41667 37.7573L11.0135 45.3542ZM23.6729 41.7115C22.1703 41.8745 20.7417 41.8808 19.2292 41.8875C16.7083 41.8985 13.8578 41.911 9.7599 42.6271L5.83959 38.7068C10.1391 36.0355 20.1724 32.2089 21.2203 31.8125H24.6839C24.9932 31.8125 25.2974 31.9427 25.5182 32.1698C25.7141 32.3709 25.8182 32.623 25.812 32.8803C25.7932 33.6339 24.9354 33.8552 24.6719 33.9052C23.249 34.1802 19.4984 35.9542 19.3391 36.0297C19.1578 36.1157 19.0417 36.299 19.0417 36.5C19.0417 37.3615 19.7427 38.0625 20.6042 38.0625H24.7708C24.8328 38.0625 24.8943 38.0516 24.9526 38.0297C27.0672 37.2433 30.6833 33.5339 32.1401 31.975C32.238 31.8704 32.3724 31.8125 32.5177 31.8125H33.7375C32.2328 34.2079 27.4787 41.2969 23.6729 41.7115Z" fill="#C0A430"/>
<path d="M17.4792 7.47033V0.56252C17.4792 0.27502 17.712 0.041687 18 0.041687C18.2881 0.041687 18.5209 0.27502 18.5209 0.56252V7.47033C18.5209 7.75783 18.2881 7.99117 18 7.99117C17.712 7.99117 17.4792 7.75783 17.4792 7.47033ZM6.77713 12.3349C6.87869 12.4365 7.01203 12.4875 7.14536 12.4875C7.27869 12.4875 7.41203 12.4365 7.51359 12.3349C7.71724 12.1313 7.71724 11.8021 7.51359 11.5985L2.62869 6.71356C2.42505 6.50992 2.09588 6.50992 1.89224 6.71356C1.68859 6.91721 1.68859 7.24637 1.89224 7.45002L6.77713 12.3349ZM28.8547 12.4875C28.9881 12.4875 29.1214 12.4365 29.223 12.3349L34.1079 7.45002C34.3115 7.24637 34.3115 6.91721 34.1079 6.71356C33.9042 6.50992 33.575 6.50992 33.3714 6.71356L28.4865 11.5985C28.2829 11.8021 28.2829 12.1313 28.4865 12.3349C28.5881 12.4365 28.7214 12.4875 28.8547 12.4875Z" fill="#C0A430"/>
<path d="M6.05308 23.7932L2.98329 28.3984C2.87652 28.5583 2.86662 28.7635 2.95725 28.9328C3.04787 29.1026 3.22443 29.2083 3.41662 29.2083H13.3947H22.6052H32.5833C32.7755 29.2083 32.952 29.1026 33.0427 28.9333C33.1333 28.7641 33.1234 28.5583 33.0166 28.399L29.9463 23.7937C29.85 23.649 29.6869 23.562 29.513 23.562H27.5322L25.3734 19.2448C25.2848 19.0682 25.1046 18.9568 24.9078 18.9568H22.927L20.7682 14.6396C20.6796 14.463 20.4994 14.3516 20.3026 14.3516H15.6973C15.5 14.3516 15.3197 14.463 15.2312 14.6396L13.0724 18.9568H11.0911C10.8937 18.9568 10.7135 19.0682 10.625 19.2448L8.46662 23.562H6.48589C6.31245 23.5615 6.14995 23.6484 6.05308 23.7932ZM13.3947 27.5229L11.9348 24.6031H14.8546L13.3947 27.5229ZM14.2375 28.1667L16.0192 24.6031H18H19.9807L21.7625 28.1667H14.2375ZM16.5401 19.9979H19.4593L18 22.9172L16.5401 19.9979ZM21.1453 24.6031H24.0651L22.6046 27.5229L21.1453 24.6031ZM29.2343 24.6031L31.6104 28.1667H23.4479L25.2302 24.6031H27.2109H29.2343ZM24.5859 19.9979L26.3677 23.5615H24.9078H20.302H18.8421L20.6239 19.9979H22.6046H24.5859ZM16.0192 15.3927H19.9802L21.7619 18.9563H20.302H15.6968H14.2369L16.0192 15.3927ZM11.4135 19.9979H13.3947H15.3755L17.1572 23.5615H15.6973H11.0916H9.63172L11.4135 19.9979ZM8.78902 24.6031H10.7697L12.552 28.1667H4.38954L6.76506 24.6031H8.78902Z" fill="#C0A430"/>
</svg>
