<svg width="50" height="50" viewBox="0 0 50 50" fill="none" xmlns="http://www.w3.org/2000/svg">
<path d="M48.665 18.3037L44.8506 14.4893C44.5566 14.1953 44.1182 14.1084 43.7266 14.2695C43.3467 14.4307 43.1006 14.8027 43.1006 15.2168V16.624H39.6113C38.7598 13.2266 36.1406 10.375 32.5254 9.40625C32.4678 9.39062 32.4102 9.37695 32.3516 9.3623V5.87598H33.7598C34.1738 5.87598 34.5449 5.62988 34.7061 5.25C34.71 5.24121 34.7139 5.23242 34.7168 5.22363C34.8643 4.83887 34.7715 4.40723 34.4805 4.12207L30.6719 0.311523C30.6689 0.308594 30.666 0.305664 30.6641 0.303711C30.2617 -0.0869141 29.6309 -0.0869141 29.2285 0.303711C29.2256 0.306641 29.2227 0.30957 29.2207 0.311523L25.4121 4.12207C25.1162 4.41309 25.0264 4.84863 25.1836 5.23633C25.3389 5.625 25.7109 5.875 26.1328 5.875H27.54V9.36426C24.1426 10.2158 21.291 12.835 20.3223 16.4512C20.3066 16.5088 20.292 16.5664 20.2783 16.625H16.791V15.2178C16.791 14.8037 16.5449 14.4326 16.1572 14.2676C15.7803 14.1123 15.3467 14.1953 15.0518 14.4795C15.0478 14.4834 15.0449 14.4863 15.041 14.4902L11.2266 18.3047C10.832 18.6992 10.8281 19.3467 11.2187 19.749C11.2217 19.752 11.2246 19.7549 11.2266 19.7568L15.041 23.5684C15.2373 23.7646 15.499 23.8691 15.7646 23.8691C15.8945 23.8691 16.0264 23.8447 16.1523 23.793C16.541 23.6367 16.791 23.2656 16.791 22.8437V21.4355H20.2734C20.4971 22.3271 20.8447 23.1934 21.3174 24.0107C22.6484 26.3154 24.7959 27.9648 27.3662 28.6533C27.5312 28.6973 27.6973 28.7363 27.8633 28.7715V29.9902C27.2939 30 26.834 30.4668 26.834 31.04V32.5996C24.8076 31.9482 22.7812 31.2969 20.7549 30.6445L20.7021 30.6279C18.2187 29.8281 15.7949 30.0557 13.498 31.3027L7.53125 34.5449L6.91503 33.4756C6.72558 33.1465 6.41796 32.9102 6.04882 32.8105C5.67871 32.7109 5.29394 32.7607 4.96484 32.9502L1.75 34.7998C1.41992 34.9902 1.18457 35.2979 1.08593 35.667C0.9873 36.0352 1.03808 36.4189 1.22851 36.748L8.45214 49.2715C8.6416 49.6025 8.94824 49.8398 9.31835 49.9395C9.44335 49.9736 9.56933 49.9902 9.69531 49.9902C9.94238 49.9902 10.1855 49.9258 10.4043 49.7998L13.6133 47.9541C13.9453 47.7646 14.1826 47.4561 14.2822 47.0859C14.3809 46.7188 14.331 46.334 14.1406 46.001L13.5547 44.9863L13.7891 44.8594C15.1172 44.1387 16.5176 44.0068 17.9512 44.4678L21.0635 45.4697C21.7871 45.7021 22.5039 45.8184 23.2109 45.8184C24.3184 45.8184 25.4014 45.5332 26.4482 44.9639L40.8437 37.1436C41.6055 36.7295 42.1611 36.041 42.4082 35.2051C42.6553 34.3691 42.5625 33.4902 42.1484 32.7295C41.7334 31.9688 41.0449 31.415 40.209 31.168C39.373 30.9219 38.4932 31.0137 37.7334 31.4277L33.0586 33.9668V31.0381C33.0586 30.4648 32.5986 29.998 32.0293 29.9883V28.7744C33.0352 28.5586 34.0117 28.1855 34.9287 27.6563C37.2334 26.3252 38.8828 24.1777 39.5713 21.6074C39.5869 21.5498 39.6006 21.4922 39.6152 21.4346H43.1025V22.8418C43.1025 23.2637 43.3525 23.6357 43.7412 23.791C43.8682 23.8428 44.001 23.8682 44.1318 23.8682C44.4004 23.8682 44.6611 23.7627 44.8564 23.5635L48.667 19.7549C48.6699 19.752 48.6728 19.749 48.6748 19.7471C49.0635 19.3467 49.0596 18.6982 48.665 18.3037ZM28.0791 4.31152H27.4336L29.9463 1.79687L32.459 4.31152H31.8135C31.248 4.31152 30.7881 4.77148 30.7881 5.33691V9.10156C30.2217 9.05371 29.6592 9.05469 29.1055 9.10254V5.33691C29.1045 4.77148 28.6445 4.31152 28.0791 4.31152ZM16.2529 19.8721C15.6875 19.8721 15.2275 20.332 15.2275 20.8975V21.543L12.7129 19.0303L15.2275 16.5156V17.1631C15.2275 17.7285 15.6875 18.1885 16.2529 18.1885H20.0166C19.9678 18.751 19.9668 19.3135 20.0137 19.8711H16.2529V19.8721ZM9.74023 48.377L2.65136 36.0859L5.62695 34.374L6.54199 35.96C6.54394 35.9629 6.54492 35.9668 6.54687 35.9697C6.55273 35.9795 6.55859 35.9893 6.56445 35.999L12.7168 46.665L9.74023 48.377ZM38.4795 32.8037C38.873 32.5889 39.3291 32.542 39.7646 32.6699C40.2002 32.7979 40.5586 33.0859 40.7734 33.4795C40.9883 33.873 41.0352 34.3291 40.9072 34.7627C40.7783 35.1973 40.4902 35.5557 40.0957 35.7695L25.7002 43.5898C24.375 44.3105 22.9756 44.4424 21.541 43.9805L18.4287 42.9785C16.5723 42.3818 14.7598 42.5518 13.041 43.4844L12.7715 43.6309L8.3125 35.8994L14.2441 32.6758C16.1504 31.6406 18.1621 31.4521 20.2227 32.1152L20.2754 32.1318C23.0957 33.04 25.916 33.9473 28.7344 34.8525C29.3564 35.0537 29.8115 35.6035 29.8935 36.252C29.8965 36.2773 29.9023 36.3027 29.9082 36.3271C29.9072 36.3477 29.9072 36.3672 29.9082 36.3877C29.918 36.583 29.8906 36.7822 29.8291 36.9766C29.6914 37.4043 29.3926 37.7539 28.9893 37.96C28.5859 38.167 28.1279 38.2051 27.6982 38.0664C25.29 37.2939 22.8818 36.5195 20.4766 35.7441C20.0654 35.6113 19.625 35.8379 19.4922 36.249C19.3594 36.6602 19.5859 37.1006 19.9971 37.2334C22.4033 38.0088 24.8115 38.7842 27.2187 39.5557C27.5459 39.6611 27.8818 39.7139 28.2178 39.7139C28.7275 39.7139 29.2344 39.5928 29.7021 39.3525C30.4775 38.9551 31.0518 38.2822 31.3193 37.4531C31.4072 37.1748 31.458 36.8916 31.4717 36.6084L38.4795 32.8037ZM31.1289 35.0156C30.7441 34.2441 30.0596 33.6387 29.2139 33.3652C28.9414 33.2783 28.6699 33.1904 28.3975 33.1025V31.5527H31.4922V34.8174L31.1289 35.0156ZM30.4629 29.9893H29.4277V28.9814C29.6055 28.9912 29.7832 28.9971 29.9609 28.9971C30.1289 28.9971 30.2959 28.9912 30.4629 28.9834V29.9893ZM34.1445 26.3037C33.2119 26.8418 32.2041 27.1885 31.1699 27.3418C31.1387 27.3447 31.1084 27.3496 31.0791 27.3564C29.9873 27.5049 28.8672 27.4375 27.7715 27.1436C25.6045 26.5635 23.7939 25.1729 22.6719 23.2305C22.1885 22.3936 21.8594 21.498 21.6865 20.5752C21.6826 20.5391 21.6758 20.5049 21.668 20.4707C21.4609 19.2832 21.5117 18.0557 21.833 16.8574C22.8369 13.1094 26.2393 10.6318 29.9473 10.6318C30.665 10.6318 31.3945 10.7246 32.1191 10.9189C36.5918 12.1172 39.2559 16.7324 38.0576 21.2061C37.4775 23.3711 36.0879 25.1816 34.1445 26.3037ZM44.6641 21.543V20.8975C44.6641 20.332 44.2041 19.8721 43.6387 19.8721H39.874C39.9219 19.3057 39.9209 18.7432 39.873 18.1895H43.6387C44.2041 18.1895 44.6641 17.7295 44.6641 17.1641V16.5166L47.1787 19.0313L44.6641 21.543ZM31.8154 12.0508C29.9512 11.5508 28.0039 11.8076 26.333 12.7725C24.6621 13.7373 23.4658 15.2959 22.9668 17.1602C22.4668 19.0244 22.7227 20.9717 23.6885 22.6436C24.6533 24.3145 26.2119 25.5107 28.0762 26.0107C28.6992 26.1777 29.331 26.2607 29.959 26.2607C31.2109 26.2607 32.4463 25.9326 33.5596 25.29C35.2305 24.3252 36.4268 22.7666 36.9268 20.9023C37.4268 19.0381 37.1709 17.0898 36.2051 15.418C35.2393 13.7441 33.6807 12.5488 31.8154 12.0508ZM35.415 20.4951C35.0234 21.9561 34.0859 23.1777 32.7764 23.9336C31.4668 24.6895 29.9414 24.8906 28.4805 24.499C27.0195 24.1074 25.7978 23.1699 25.042 21.8613C24.2861 20.5518 24.085 19.0264 24.4766 17.5654C24.8682 16.1045 25.8057 14.8828 27.1143 14.127C27.9863 13.623 28.9541 13.3662 29.9346 13.3662C30.4268 13.3662 30.9219 13.4307 31.4102 13.5615H31.4111C32.8721 13.9521 34.0928 14.8887 34.8486 16.1982C35.6055 17.5078 35.8066 19.0342 35.415 20.4951ZM32.0107 20.2881C32.0107 21.1465 31.4795 21.8818 30.7295 22.1836V22.6768C30.7295 23.1084 30.3799 23.459 29.9473 23.459C29.5146 23.459 29.165 23.1094 29.165 22.6768V22.2656C28.7187 22.1484 28.3154 21.8809 28.0342 21.501C27.7773 21.1543 27.8496 20.6641 28.1963 20.4072C28.543 20.1504 29.0332 20.2227 29.29 20.5693C29.3818 20.6934 29.5264 20.7676 29.6748 20.7676H29.9678C30.2266 20.7676 30.4453 20.5479 30.4453 20.2871C30.4453 20.0283 30.2266 19.8096 29.9678 19.8096H29.8213C29.7598 19.8096 29.7002 19.8018 29.6435 19.7881C28.6494 19.6523 27.8799 18.7988 27.8799 17.7676C27.8799 16.9092 28.4131 16.1748 29.1641 15.873V15.3809C29.1641 14.9492 29.5137 14.5986 29.9463 14.5986C30.3789 14.5986 30.7285 14.9482 30.7285 15.3809V15.793C31.1758 15.9111 31.5791 16.1787 31.8584 16.5596C32.1143 16.9072 32.0391 17.3975 31.6914 17.6523C31.3437 17.9082 30.8535 17.833 30.5986 17.4854C30.5088 17.3623 30.3652 17.29 30.2158 17.29H29.9228C29.6641 17.29 29.4453 17.5088 29.4453 17.7676C29.4453 18.0313 29.6592 18.2451 29.9228 18.2451H30.0693C30.1309 18.2451 30.1904 18.2529 30.248 18.2666C31.2412 18.4043 32.0107 19.2568 32.0107 20.2881Z" fill="#C0A430"/>
</svg>
