<svg width="70" height="70" viewBox="0 0 70 70" fill="none" xmlns="http://www.w3.org/2000/svg">
<g clip-path="url(#clip0_1_314)">
<path d="M62.991 13.0101H55.0079V1.02826C55.0079 0.461841 54.5489 0.00288554 53.9825 0.00288554H44.0563C43.4899 0.00288554 43.031 0.461841 43.031 1.02826C43.031 1.59467 43.4899 2.05363 44.0563 2.05363H52.9571V13.0101H35.4051V2.05363H40.0916C40.658 2.05363 41.117 1.59467 41.117 1.02826C41.117 0.461841 40.658 0.00288554 40.0916 0.00288554H34.3797C33.8133 0.00288554 33.3544 0.461841 33.3544 1.02826V13.0101H31.2644C31.2737 12.9637 31.2827 12.9174 31.2913 12.8707C32.3905 6.97581 28.4894 1.28638 22.5947 0.187179C19.7393 -0.34492 16.8475 0.266201 14.4517 1.90871C12.4336 3.29241 10.9713 5.26837 10.2422 7.56383L9.29355 6.37303C8.94069 5.93007 8.29566 5.8572 7.8527 6.20993C7.40974 6.5628 7.33673 7.20796 7.6896 7.65078L9.96797 10.5107C10.1687 10.7627 10.467 10.8972 10.7705 10.8972C10.9473 10.8972 11.1258 10.8516 11.2877 10.757L14.4438 8.91048C14.9325 8.62447 15.097 7.9964 14.8111 7.50764C14.5251 7.01902 13.8972 6.85441 13.4083 7.14028L12.3449 7.76248C12.6703 6.89843 13.1243 6.10698 13.6799 5.40631L13.8611 5.58746C14.0614 5.78762 14.3239 5.88769 14.5862 5.88769C14.8486 5.88769 15.1111 5.78762 15.3114 5.58746C15.7118 5.18688 15.7118 4.53776 15.3114 4.13732L15.1321 3.95808C16.3992 2.95787 17.9344 2.30559 19.576 2.11269V3.5009C19.576 4.06732 20.0349 4.52627 20.6013 4.52627C21.1678 4.52627 21.6267 4.06732 21.6267 3.5009V2.11323C21.8236 2.13634 22.0211 2.16628 22.2188 2.20319C23.6766 2.47499 24.9842 3.09294 26.0724 3.95603L25.8914 4.13704C25.491 4.53762 25.491 5.18675 25.8914 5.58719C26.0917 5.78734 26.3542 5.88742 26.6166 5.88742C26.8789 5.88742 27.1414 5.78734 27.3417 5.58719L27.5208 5.40809C28.521 6.67531 29.1733 8.2105 29.3662 9.85177H27.9781C27.4117 9.85177 26.9528 10.3107 26.9528 10.8771C26.9528 11.4436 27.4117 11.9025 27.9781 11.9025H29.3655C29.3423 12.0994 29.3125 12.2969 29.2756 12.4946C29.0038 13.9524 28.3858 15.26 27.5227 16.3482L27.3416 16.1671C26.941 15.7668 26.2919 15.7668 25.8914 16.1671C25.491 16.5677 25.491 17.2168 25.8914 17.6172L26.0705 17.7963C24.1398 19.3203 21.5866 20.0363 18.984 19.551C18.4281 19.4479 17.8919 19.8143 17.788 20.371C17.6842 20.9277 18.0513 21.4631 18.608 21.567C19.279 21.6921 19.9469 21.7524 20.6061 21.7524C21.9047 21.7524 23.1679 21.518 24.3461 21.0834V59.5408C24.3461 60.1072 24.8051 60.5662 25.3715 60.5662C25.9379 60.5662 26.3969 60.1072 26.3969 59.5408V20.0725C28.3002 18.872 29.782 17.1215 30.6401 15.0608H61.9659V67.9493H54.0612V61.4525C54.0612 59.7064 52.6405 58.2856 50.8943 58.2856H37.4685C35.7224 58.2856 34.3017 59.7064 34.3017 61.4525V67.9493H26.397V63.5061C26.397 62.9397 25.938 62.4808 25.3716 62.4808C24.8052 62.4808 24.3463 62.9397 24.3463 63.5061V68.9746C24.3463 69.541 24.8052 70 25.3716 70H62.9914C63.5578 70 64.0168 69.541 64.0168 68.9746V14.0354C64.0163 13.469 63.5574 13.0101 62.991 13.0101ZM36.352 67.9493V61.4525C36.352 60.837 36.8526 60.3364 37.4681 60.3364H50.8939C51.5094 60.3364 52.0101 60.837 52.0101 61.4525V67.9493H36.352Z" fill="#C0A430"/>
<path d="M20.6011 5.78955C20.0347 5.78955 19.5757 6.24852 19.5757 6.81494V10.8774C19.5757 11.4438 20.0347 11.9028 20.6011 11.9028H22.7185C23.2849 11.9028 23.7438 11.4438 23.7438 10.8774C23.7438 10.311 23.2849 9.85201 22.7185 9.85201H21.6265V6.81494C21.6265 6.24865 21.1675 5.78955 20.6011 5.78955Z" fill="#C0A430"/>
<path d="M16.8344 16.5883C16.843 14.8774 16.8466 13.1473 16.8272 12.8919C16.7755 12.2061 16.369 11.6556 15.7918 11.4892C15.2247 11.3254 14.6419 11.5573 14.2342 12.1088C13.8492 12.6299 12.1091 16.0898 11.5849 17.1379C11.4259 17.4557 11.443 17.8332 11.6298 18.1355C11.8165 18.4379 12.1465 18.6219 12.502 18.6219H14.7711C14.7683 19.0155 14.7656 19.3926 14.7629 19.7375C14.7585 20.3038 15.214 20.7664 15.7802 20.771H15.7884C16.351 20.771 16.8092 20.3172 16.8136 19.7537C16.8158 19.4738 16.8188 19.0744 16.8221 18.607C17.305 18.524 17.6723 18.1031 17.6723 17.5965C17.6723 17.0943 17.3111 16.6763 16.8344 16.5883ZM14.7834 16.5712H14.1675C14.382 16.1491 14.5923 15.7384 14.7884 15.3588C14.7872 15.7421 14.7853 16.152 14.7834 16.5712Z" fill="#C0A430"/>
<path d="M10.6354 18.9513C10.6306 18.9513 10.6259 18.9513 10.6211 18.9515C10.1175 18.9584 9.58763 18.9636 9.10584 18.9662C9.45379 18.4479 9.90686 17.7585 10.487 16.8444C10.846 16.2785 11.2742 15.4158 11.3414 14.8325C11.447 13.9208 11.1956 13.0712 10.6332 12.4401C10.1262 11.8708 9.40935 11.5443 8.66644 11.5443C7.36326 11.5443 6.24178 12.5317 5.99966 13.8921C5.9004 14.4497 6.27199 14.982 6.82952 15.0812C7.3865 15.18 7.91942 14.809 8.01854 14.2513C8.08622 13.8711 8.35855 13.5951 8.6663 13.5951C8.82462 13.5951 8.98335 13.6713 9.10188 13.8041C9.2617 13.9835 9.33443 14.2472 9.30873 14.5506C9.22848 14.8913 9.04241 15.2931 8.75517 15.7456C7.71161 17.3902 7.08915 18.2892 6.75488 18.7722C6.33174 19.3833 6.09877 19.7199 6.26652 20.2501C6.36619 20.565 6.60339 20.8117 6.91784 20.9275C7.06604 20.982 7.17172 21.0209 8.48761 21.0209C9.00003 21.0209 9.69605 21.015 10.6494 21.0018C11.2156 20.994 11.6683 20.5286 11.6605 19.9623C11.6526 19.4011 11.1951 18.9513 10.6354 18.9513Z" fill="#C0A430"/>
<path d="M38.7307 9.29551C38.7307 9.86193 39.1897 10.3209 39.7561 10.3209H48.6061C49.1725 10.3209 49.6315 9.86193 49.6315 9.29551C49.6315 8.7291 49.1725 8.27014 48.6061 8.27014H39.7561C39.1897 8.27014 38.7307 8.7291 38.7307 9.29551Z" fill="#C0A430"/>
<path d="M55.5826 49.9208C56.6666 49.9208 57.5486 49.0388 57.5486 47.9548V20.6861C57.5486 19.602 56.6666 18.7201 55.5826 18.7201H32.7797C31.6957 18.7201 30.8138 19.602 30.8138 20.6861V47.9548C30.8138 49.0388 31.6957 49.9208 32.7797 49.9208H55.5826ZM55.4977 47.87H52.6762V31.2965C52.6762 30.7301 52.2172 30.2711 51.6508 30.2711C51.0844 30.2711 50.6254 30.7301 50.6254 31.2965V37.8573H37.7367V20.771H50.6254V27.3317C50.6254 27.8981 51.0844 28.3571 51.6508 28.3571C52.2172 28.3571 52.6762 27.8981 52.6762 27.3317V20.771H55.4977V47.87ZM32.8645 20.771H35.6861L35.6862 47.8701H32.8645V20.771ZM37.7368 47.87V39.9081H50.6254V47.87H37.7368Z" fill="#C0A430"/>
<path d="M38.522 53.4691C37.9555 53.4691 37.4966 53.9281 37.4966 54.4945C37.4966 55.0609 37.9555 55.5199 38.522 55.5199H49.8405C50.407 55.5199 50.8659 55.0609 50.8659 54.4945C50.8659 53.9281 50.407 53.4691 49.8405 53.4691H38.522Z" fill="#C0A430"/>
<path d="M46.2883 63.8246H42.074C41.5076 63.8246 41.0486 64.2835 41.0486 64.85C41.0486 65.4164 41.5076 65.8754 42.074 65.8754H46.2883C46.8548 65.8754 47.3137 65.4164 47.3137 64.85C47.3137 64.2835 46.8548 63.8246 46.2883 63.8246Z" fill="#C0A430"/>
<path d="M41.4016 41.1874H40.6448C40.0783 41.1874 39.6194 41.6463 39.6194 42.2128C39.6194 42.7792 40.0783 43.2382 40.6448 43.2382H41.4016C41.9681 43.2382 42.427 42.7792 42.427 42.2128C42.427 41.6463 41.9681 41.1874 41.4016 41.1874Z" fill="#C0A430"/>
<path d="M47.7175 41.1874H46.9608C46.3943 41.1874 45.9354 41.6463 45.9354 42.2128C45.9354 42.7792 46.3943 43.2382 46.9608 43.2382H47.7175C48.2839 43.2382 48.7429 42.7792 48.7429 42.2128C48.7429 41.6463 48.2839 41.1874 47.7175 41.1874Z" fill="#C0A430"/>
<path d="M41.4016 44.5173H40.6448C40.0783 44.5173 39.6194 44.9763 39.6194 45.5427C39.6194 46.1092 40.0783 46.5681 40.6448 46.5681H41.4016C41.9681 46.5681 42.427 46.1092 42.427 45.5427C42.427 44.9763 41.9681 44.5173 41.4016 44.5173Z" fill="#C0A430"/>
<path d="M47.7175 44.5173H46.9608C46.3943 44.5173 45.9354 44.9763 45.9354 45.5427C45.9354 46.1092 46.3943 46.5681 46.9608 46.5681H47.7175C48.2839 46.5681 48.7429 46.1092 48.7429 45.5427C48.7429 44.9763 48.2839 44.5173 47.7175 44.5173Z" fill="#C0A430"/>
</g>
<defs>
<clipPath id="clip0_1_314">
<rect width="70" height="70" fill="white"/>
</clipPath>
</defs>
</svg>
