<svg width="50" height="44" viewBox="0 0 50 44" fill="none" xmlns="http://www.w3.org/2000/svg">
<path d="M49.9624 43.0028L47.5356 35.7225C47.4359 35.4235 47.156 35.2217 46.8408 35.2217H43.7287L41.4687 28.4418C41.369 28.1428 41.0891 27.941 40.7739 27.941H37.6625L35.4018 21.1591C35.3021 20.8601 35.0222 20.6583 34.707 20.6583H27.4267C27.1115 20.6583 26.8316 20.8601 26.7319 21.1591L25 26.3548L23.268 21.1591C23.1683 20.8601 22.8885 20.6583 22.5732 20.6583H15.2929C14.9777 20.6583 14.6978 20.8601 14.5981 21.1591L12.3375 27.941H9.22606C8.91082 27.941 8.63094 28.1428 8.53123 28.4418L6.27137 35.2212H3.15916C2.84393 35.2212 2.56404 35.423 2.46434 35.722L0.0375779 43.0023C-0.0368362 43.2256 0.000566198 43.4711 0.138262 43.6621C0.275957 43.8531 0.497051 43.9663 0.732402 43.9663L17.4804 43.9668C17.8849 43.9668 18.2129 43.6389 18.2129 43.2344C18.2129 42.8299 17.8849 42.502 17.4804 42.502H13.8824L15.8209 36.6865H22.0453L23.9838 42.502H20.6728C20.2683 42.502 19.9404 42.8299 19.9404 43.2344C19.9404 43.6389 20.2683 43.9668 20.6728 43.9668H42.2002C42.6047 43.9668 42.9326 43.6389 42.9326 43.2344C42.9326 42.8299 42.6047 42.502 42.2002 42.502H38.15L40.0885 36.6865H46.3129L48.2513 42.502H45.3926C44.9881 42.502 44.6601 42.8299 44.6601 43.2344C44.6601 43.6389 44.9881 43.9668 45.3926 43.9668H49.2676C49.503 43.9668 49.7241 43.8536 49.8617 43.6626C49.9994 43.4717 50.0369 43.2262 49.9624 43.0028ZM42.1845 35.2213H32.0831L34.0216 29.4059H40.246L42.1845 35.2213ZM19.9493 35.2213L21.8878 29.4059H28.1122L30.0507 35.2213H19.9493ZM18.9331 33.6376L17.5217 29.4033H20.3445L18.9331 33.6376ZM29.6554 29.4033H32.4783L31.0669 33.6376L29.6554 29.4033ZM27.9547 22.1231H34.1791L36.1176 27.9385H26.0162L27.9547 22.1231ZM15.8209 22.1231H22.0453L23.9838 27.9385H13.8824L15.8209 22.1231ZM9.75398 29.4059H15.9784L17.9169 35.2213H7.81551L9.75398 29.4059ZM1.74861 42.5016L3.68709 36.6862H9.9115L11.85 42.5016H1.74861ZM12.8663 40.9181L11.4556 36.6862H14.2769L12.8663 40.9181ZM23.5892 36.6862H26.4105L24.9999 40.9181L23.5892 36.6862ZM26.0162 42.5016L27.9547 36.6862H34.1791L36.1176 42.5016H26.0162ZM37.1339 40.9181L35.7232 36.6862H38.5445L37.1339 40.9181Z" fill="#C0A430"/>
<path d="M4.28394 25.5118L13.1696 16.626H34.1002C34.2945 16.626 34.4808 16.5489 34.6181 16.4115L42.4681 8.5617V11.3435C42.4681 11.748 42.796 12.076 43.2005 12.076C43.605 12.076 43.933 11.748 43.933 11.3435V6.80642C43.9406 6.37615 43.5865 6.06043 43.1998 6.06091H38.6503C38.2458 6.06091 37.9179 6.38884 37.9179 6.79334C37.9179 7.19783 38.2458 7.52576 38.6503 7.52576H41.4324L33.7968 15.1612H12.8662C12.6719 15.1612 12.4856 15.2384 12.3483 15.3758L3.2481 24.4761C2.96206 24.7621 2.96206 25.2259 3.2481 25.5118C3.39116 25.6548 3.87573 25.8636 4.28394 25.5118Z" fill="#C0A430"/>
<path d="M15.8998 13.5926H18.9332C19.3377 13.5926 19.6656 13.2647 19.6656 12.8602V6.79327C19.6656 6.38878 19.3377 6.06085 18.9332 6.06085H15.8998C15.4953 6.06085 15.1674 6.38878 15.1674 6.79327V12.8602C15.1674 13.2647 15.4952 13.5926 15.8998 13.5926ZM16.6322 7.52579H18.2008V12.1278H16.6322V7.52579Z" fill="#C0A430"/>
<path d="M21.9666 13.5926H25C25.4044 13.5926 25.7324 13.2646 25.7324 12.8601V3.75995C25.7324 3.35546 25.4044 3.02753 25 3.02753H21.9666C21.5621 3.02753 21.2341 3.35546 21.2341 3.75995V12.8602C21.2341 13.2646 21.5621 13.5926 21.9666 13.5926ZM22.699 4.49237H24.2675V12.1278H22.699V4.49237Z" fill="#C0A430"/>
<path d="M28.0332 13.5928H31.0664C31.4709 13.5928 31.7988 13.2648 31.7988 12.8604V8.38965C31.7988 7.98516 31.4709 7.65723 31.0664 7.65723C30.6619 7.65723 30.334 7.98516 30.334 8.38965V12.1279H28.7656V1.49805H30.334V5.19727C30.334 5.60176 30.6619 5.92969 31.0664 5.92969C31.4709 5.92969 31.7988 5.60176 31.7988 5.19727V0.765625C31.7988 0.361133 31.4709 0.0332031 31.0664 0.0332031H28.0332C27.6287 0.0332031 27.3008 0.361133 27.3008 0.765625V12.8604C27.3008 13.2648 27.6287 13.5928 28.0332 13.5928Z" fill="#C0A430"/>
<path d="M43.933 15.8937C43.933 15.4892 43.6051 15.1613 43.2006 15.1613C42.7961 15.1613 42.4681 15.4892 42.4681 15.8937V17.4499C42.4681 17.8544 42.7961 18.1823 43.2006 18.1823C43.6051 18.1823 43.933 17.8544 43.933 17.4499V15.8937Z" fill="#C0A430"/>
<path d="M43.2006 19.7509C42.7961 19.7509 42.4681 20.0788 42.4681 20.4833V22C42.4681 22.4045 42.7961 22.7324 43.2006 22.7324C43.6051 22.7324 43.933 22.4045 43.933 22V20.4833C43.933 20.0788 43.6051 19.7509 43.2006 19.7509Z" fill="#C0A430"/>
<path d="M44.7173 19.699H46.234C46.6385 19.699 46.9664 19.3711 46.9664 18.9666C46.9664 18.5621 46.6385 18.2342 46.234 18.2342H44.7173C44.3128 18.2342 43.9849 18.5621 43.9849 18.9666C43.9849 19.3711 44.3128 19.699 44.7173 19.699Z" fill="#C0A430"/>
<path d="M40.1671 18.2342C39.7626 18.2342 39.4346 18.5621 39.4346 18.9666C39.4346 19.3711 39.7626 19.699 40.1671 19.699H41.6838C42.0882 19.699 42.4162 19.3711 42.4162 18.9666C42.4162 18.5621 42.0882 18.2342 41.6838 18.2342H40.1671Z" fill="#C0A430"/>
<path d="M6.7995 12.1155C7.20399 12.1155 7.53192 11.7875 7.53192 11.383V9.86633C7.53192 9.46184 7.20399 9.13391 6.7995 9.13391C6.39501 9.13391 6.06708 9.46184 6.06708 9.86633V11.383C6.06708 11.7875 6.39491 12.1155 6.7995 12.1155Z" fill="#C0A430"/>
<path d="M8.31579 13.6322C8.32224 13.6322 8.32878 13.6321 8.33532 13.632L9.85202 13.5925C10.2564 13.5819 10.5757 13.2456 10.5651 12.8412C10.5546 12.4368 10.2163 12.1201 9.81384 12.1281L8.29714 12.1677C7.89275 12.1782 7.57351 12.5146 7.58406 12.919C7.59441 13.3168 7.92019 13.6322 8.31579 13.6322Z" fill="#C0A430"/>
<path d="M6.79948 16.6656C7.20406 16.6656 7.5319 16.3377 7.5319 15.9332L7.5318 14.4165C7.5318 14.0119 7.20387 13.6841 6.79938 13.6841C6.39479 13.6841 6.06696 14.012 6.06696 14.4165L6.06705 15.9332C6.06705 16.3378 6.39498 16.6656 6.79948 16.6656Z" fill="#C0A430"/>
<path d="M3.76611 13.6322H5.28281C5.6873 13.6322 6.01523 13.3043 6.01523 12.8998C6.01523 12.4953 5.6873 12.1674 5.28281 12.1674H3.76611C3.36162 12.1674 3.03369 12.4953 3.03369 12.8998C3.03369 13.3043 3.36152 13.6322 3.76611 13.6322Z" fill="#C0A430"/>
</svg>
