<svg width="28" height="28" viewBox="0 0 28 28" fill="none" xmlns="http://www.w3.org/2000/svg">
<g clip-path="url(#clip0_1_211)">
<path d="M28 14C28 6.26785 21.7321 0 14 0C6.26785 0 0 6.26785 0 14C0 20.9876 5.11881 26.7804 11.8119 27.8299V18.0465H8.25689V14H11.8119V10.9159C11.8119 7.40652 13.9025 5.46933 17.1007 5.46933C18.6335 5.46933 20.2347 5.74311 20.2347 5.74311V9.18815H18.4696C16.7295 9.18815 16.1881 10.2667 16.1881 11.3742V14H20.0708L19.4507 18.0465H16.1881V27.8299C22.8812 26.7804 28 20.9876 28 14Z" fill="#4676ED"/>
<path d="M19.4485 18.0464L20.0687 13.9999H16.1881V11.3741C16.1881 10.2666 16.7294 9.18805 18.4696 9.18805H20.2346V5.74302C20.2346 5.74302 18.6334 5.46924 17.1007 5.46924C13.9025 5.46924 11.8118 7.40642 11.8118 10.9158V13.9999H8.25684V18.0464H11.8118V27.8298C12.5253 27.9418 13.2554 27.9999 13.9999 27.9999C14.7445 27.9999 15.4746 27.9418 16.1881 27.8298V18.0464H19.4485Z" fill="white"/>
</g>
<defs>
<clipPath id="clip0_1_211">
<rect width="28" height="28" fill="white"/>
</clipPath>
</defs>
</svg>
