<svg width="50" height="50" viewBox="0 0 50 50" fill="none" xmlns="http://www.w3.org/2000/svg">
<path d="M19.456 35.1319C19.607 35.2671 19.8028 35.3415 20.0054 35.3407C20.1238 35.3413 20.2409 35.3167 20.349 35.2683C20.457 35.22 20.5534 35.1491 20.6318 35.0604L24.1208 31.1154C24.2657 30.9474 24.3384 30.729 24.3229 30.5077C24.3075 30.2865 24.2052 30.0803 24.0384 29.9341L20.5494 26.9231C20.4668 26.8509 20.3708 26.7957 20.2668 26.7607C20.1629 26.7257 20.0531 26.7114 19.9436 26.7188C19.8342 26.7262 19.7273 26.7551 19.629 26.8038C19.5307 26.8525 19.443 26.9201 19.3708 27.0027C19.2987 27.0854 19.2435 27.1814 19.2085 27.2853C19.1734 27.3893 19.1592 27.4991 19.1666 27.6085C19.174 27.718 19.2029 27.8249 19.2516 27.9232C19.3003 28.0214 19.3679 28.1092 19.4505 28.1813L21.5439 29.989L14.1098 30.9835C13.9059 31.0165 13.7217 31.1244 13.5931 31.2861C13.4646 31.4478 13.4009 31.6516 13.4147 31.8577C13.4284 32.0638 13.5185 32.2574 13.6674 32.4005C13.8163 32.5437 14.0133 32.6262 14.2197 32.6319H14.3296L21.4285 31.6813L19.412 33.9615C19.2631 34.1227 19.184 34.3364 19.1923 34.5558C19.2005 34.7751 19.2953 34.9823 19.456 35.1319Z" fill="#C0A430"/>
<path d="M15.6979 18.1319C15.5316 17.9873 15.3153 17.9138 15.0954 17.9272C14.8755 17.9406 14.6696 18.0397 14.5221 18.2033L11.0331 22.1539C10.888 22.3205 10.8149 22.5378 10.8298 22.7583C10.85 22.9716 10.9524 23.1687 11.1155 23.3077L14.6045 26.3242C14.7586 26.4528 14.9532 26.5229 15.1539 26.522C15.2728 26.5227 15.3905 26.4975 15.4986 26.4482C15.6068 26.3988 15.7029 26.3265 15.7803 26.2363C15.9246 26.0701 15.9969 25.8535 15.9815 25.634C15.966 25.4146 15.864 25.2102 15.6979 25.0659L13.6045 23.2583L21.2968 22.2253C21.405 22.2109 21.5094 22.1753 21.6038 22.1205C21.6983 22.0657 21.7811 21.9929 21.8474 21.9062C21.9137 21.8195 21.9623 21.7205 21.9904 21.615C22.0185 21.5095 22.0255 21.3995 22.0111 21.2912C21.9967 21.183 21.961 21.0787 21.9063 20.9842C21.8515 20.8897 21.7787 20.807 21.692 20.7406C21.6053 20.6743 21.5063 20.6257 21.4008 20.5976C21.2953 20.5695 21.1853 20.5625 21.077 20.5769L13.7364 21.5769L15.7528 19.2967C15.8988 19.1344 15.9748 18.9211 15.9645 18.703C15.9542 18.485 15.8584 18.2798 15.6979 18.1319Z" fill="#C0A430"/>
<path d="M42.8572 18.2143C42.2638 19.3132 40.8792 20.033 39.8847 19.7143C39.5271 19.5718 39.1878 19.3874 38.8737 19.1649C38.4075 18.8308 37.8922 18.5712 37.3462 18.3956C35.6649 17.9286 33.6539 18.9451 32.7583 20.6649C32.6647 20.8587 32.6496 21.0813 32.7162 21.286C32.7827 21.4908 32.9258 21.6619 33.1155 21.7638C33.233 21.8236 33.3627 21.8556 33.4946 21.8572C33.6418 21.856 33.7861 21.8157 33.9125 21.7404C34.039 21.6651 34.1432 21.5575 34.2144 21.4286C34.7638 20.4011 35.9671 19.7418 36.8792 20C37.2608 20.1311 37.6216 20.3161 37.9506 20.5495C38.3838 20.8577 38.8571 21.1054 39.3572 21.2857C41.1045 21.8352 43.3243 20.8187 44.3023 18.9835C44.365 18.7973 44.3597 18.5948 44.2871 18.4122C44.2145 18.2295 44.0794 18.0786 43.9059 17.9862C43.7324 17.8939 43.5318 17.8661 43.3397 17.9079C43.1477 17.9496 42.9767 18.0582 42.8572 18.2143Z" fill="#C0A430"/>
<path d="M43.9835 21.4286C43.7916 21.3337 43.5705 21.3161 43.366 21.3795C43.1615 21.4429 42.9892 21.5824 42.8846 21.7692C42.2912 22.8681 40.9066 23.5879 39.912 23.2692C39.5545 23.1267 39.2151 22.9423 38.9011 22.7198C38.4333 22.375 37.9141 22.1061 37.3626 21.9231C35.6813 21.456 33.6703 22.4725 32.7747 24.1923C32.6811 24.3862 32.666 24.6087 32.7325 24.8135C32.7991 25.0182 32.9421 25.1894 33.1318 25.2912C33.2493 25.3511 33.3791 25.3831 33.511 25.3846C33.6647 25.3848 33.8155 25.3422 33.9465 25.2617C34.0774 25.1812 34.1835 25.0658 34.2527 24.9286C34.8022 23.9011 36.0055 23.2472 36.9175 23.5C37.3087 23.6286 37.6789 23.8137 38.0164 24.0494C38.4496 24.3577 38.9229 24.6054 39.423 24.7857C41.1703 25.3352 43.3901 24.3187 44.3681 22.4835C44.4492 22.2916 44.4546 22.0761 44.3832 21.8804C44.3119 21.6847 44.169 21.5232 43.9835 21.4286Z" fill="#C0A430"/>
<path d="M44.0055 24.9286C43.9075 24.8749 43.7999 24.8413 43.6889 24.8296C43.5778 24.818 43.4656 24.8286 43.3587 24.8608C43.2518 24.8931 43.1524 24.9463 43.0663 25.0173C42.9801 25.0884 42.909 25.1759 42.8571 25.2747C42.2637 26.3736 40.8736 27.0934 39.8846 26.7747C39.527 26.6323 39.1877 26.4478 38.8736 26.2253C38.4128 25.8908 37.9032 25.6294 37.3626 25.4506C35.6813 24.978 33.6703 26 32.7747 27.7198C32.6811 27.9137 32.666 28.1362 32.7325 28.341C32.7991 28.5457 32.9421 28.7169 33.1318 28.8187C33.2493 28.8786 33.3791 28.9106 33.511 28.9121C33.6647 28.9123 33.8155 28.8697 33.9465 28.7892C34.0774 28.7087 34.1835 28.5933 34.2527 28.4561C34.8022 27.4286 36 26.7693 36.9175 27.0275C37.3087 27.1561 37.6789 27.3412 38.0164 27.5769C38.4496 27.8852 38.9229 28.1329 39.423 28.3132C41.1703 28.8627 43.3901 27.8462 44.3681 26.0165C44.4593 25.8234 44.4725 25.6025 44.405 25.3998C44.3374 25.1972 44.1943 25.0284 44.0055 24.9286Z" fill="#C0A430"/>
<path d="M44.0439 12.5715C43.2551 11.8743 42.322 11.3601 41.3114 11.0657C40.3007 10.7712 39.2375 10.7038 38.1977 10.8682L34.901 11.3847C29.7471 12.1924 25.5603 18.4176 25.6318 25.2693C25.6592 29.2473 27.0548 32.6979 29.4779 34.7473C30.775 35.894 32.4445 36.5305 34.1757 36.5385C34.5584 36.5391 34.9405 36.5097 35.3186 36.4506L38.6153 35.9341C43.7636 35.1319 47.923 28.9011 47.879 22.0495C47.846 18.077 46.4504 14.6209 44.0439 12.5715ZM33.0548 13.7638C32.3012 14.5614 31.6463 15.4469 31.1043 16.4012L29.9559 16.5825C30.7583 15.423 31.812 14.4596 33.0384 13.7638H33.0548ZM27.2801 25.2748C27.2801 25.0495 27.2801 24.8242 27.2801 24.599L28.9285 24.3407C28.9285 24.4836 28.9285 24.6264 28.9285 24.7693C28.919 26.7301 29.302 28.673 30.0548 30.4836L28.4559 30.7363C27.6695 29.0236 27.2681 27.1594 27.2801 25.2748ZM29.0548 22.6429L27.4724 22.8737C27.7006 21.3316 28.1658 19.8341 28.8515 18.4341L30.2197 18.2198C29.6357 19.6299 29.2439 21.112 29.0548 22.6264V22.6429ZM29.3845 32.2748L30.8735 32.0385C31.3863 32.8627 32.0218 33.6038 32.7581 34.2363C33.0173 34.4557 33.2908 34.6576 33.5768 34.8407C32.4444 34.7126 31.3783 34.2409 30.5219 33.4891C30.0983 33.1223 29.7168 32.7095 29.3845 32.2583V32.2748ZM38.346 34.3077C37.5418 34.4323 36.7199 34.3767 35.9398 34.1448C35.1596 33.913 34.4407 33.5107 33.8351 32.9671C31.8241 31.2583 30.6153 28.1814 30.5933 24.7253C30.5703 22.2418 31.1531 19.7901 32.2911 17.5825C32.3251 17.531 32.3527 17.4757 32.3735 17.4176C33.8131 14.7583 35.9999 12.8627 38.4559 12.4726C39.2594 12.3466 40.0808 12.4005 40.8609 12.6304C41.641 12.8603 42.3603 13.2606 42.9669 13.8022C44.9724 15.511 46.1867 18.5825 46.2087 22.044C46.2471 28.1209 42.7197 33.6099 38.346 34.2913V34.3077Z" fill="#C0A430"/>
<path d="M30.9232 39.5604C30.7031 39.5604 30.4921 39.6478 30.3365 39.8034C30.1809 39.959 30.0935 40.17 30.0935 40.3901V43.4615C30.0782 43.8824 29.9186 44.2852 29.6414 44.6023C29.3643 44.9195 28.9865 45.1316 28.5715 45.2032L8.63745 47.8021C8.46987 47.8249 8.29939 47.8127 8.13675 47.7664C7.9741 47.7201 7.82281 47.6406 7.69239 47.5329C7.56854 47.4208 7.47049 47.2832 7.40503 47.1295C7.33958 46.9758 7.30827 46.8098 7.31327 46.6428V8.82411C7.33081 8.39956 7.49469 7.99415 7.77712 7.67668C8.05954 7.3592 8.4431 7.14922 8.86272 7.08236L10.9122 6.81313C10.89 6.92189 10.89 7.03403 10.9122 7.1428C10.9386 7.34194 11.0359 7.52488 11.1863 7.65809C11.3366 7.7913 11.53 7.86585 11.7309 7.86807H11.8407L25.6045 6.08236C25.8226 6.05229 26.0201 5.93727 26.1539 5.76233C26.2876 5.5874 26.3469 5.36671 26.3188 5.14829C26.3016 5.03883 26.2663 4.93299 26.2144 4.8351L28.7913 4.49994C28.9606 4.47382 29.1336 4.48434 29.2985 4.53079C29.4635 4.57724 29.6165 4.65852 29.7473 4.76917C29.8711 4.88018 29.9691 5.01684 30.0346 5.16962C30.1 5.32241 30.1314 5.48763 30.1265 5.65379V9.89005C30.1498 10.0922 30.2467 10.2788 30.3987 10.4142C30.5507 10.5496 30.7471 10.6244 30.9506 10.6244C31.1542 10.6244 31.3506 10.5496 31.5026 10.4142C31.6545 10.2788 31.7514 10.0922 31.7748 9.89005V5.6428C31.78 5.24009 31.6988 4.84095 31.5367 4.47226C31.3747 4.10357 31.1355 3.77389 30.8352 3.50543L30.6979 3.40104C30.642 3.36188 30.5832 3.32699 30.5221 3.29664L27.2748 0.944994C27.2104 0.897251 27.1378 0.861855 27.0605 0.840598C26.5165 0.540495 25.8911 0.421192 25.2748 0.499939L5.35173 3.09335C4.534 3.21692 3.78584 3.62432 3.23833 4.24415C2.69083 4.86399 2.37891 5.65672 2.35723 6.48346V44.3021C2.3514 44.7041 2.43231 45.1027 2.59445 45.4706C2.75659 45.8385 2.99615 46.1671 3.29679 46.434C3.34074 46.4725 3.39019 46.4999 3.43415 46.5329C3.45342 46.5558 3.47559 46.5761 3.50008 46.5933L6.90118 49.0439C6.99065 49.1101 7.09397 49.1552 7.20338 49.1758C7.59379 49.3657 8.02197 49.4652 8.45613 49.467C8.58787 49.4752 8.71999 49.4752 8.85173 49.467L28.7583 46.8736C29.5761 46.75 30.3242 46.3426 30.8717 45.7228C31.4192 45.1029 31.7311 44.3102 31.7528 43.4835V40.401C31.755 40.291 31.7352 40.1816 31.6944 40.0793C31.6536 39.977 31.5928 39.884 31.5154 39.8056C31.4381 39.7272 31.3458 39.6652 31.2441 39.623C31.1424 39.5809 31.0333 39.5596 30.9232 39.5604ZM4.01657 6.48346C4.03308 6.05858 4.1966 5.65263 4.47921 5.33495C4.76181 5.01727 5.14596 4.80757 5.56602 4.7417L25.4726 2.14829C25.6419 2.12254 25.8148 2.13323 25.9797 2.17966C26.1446 2.22609 26.2976 2.30719 26.4287 2.41752C26.6202 2.58723 26.7465 2.81848 26.7858 3.07137L8.65393 5.43401C7.83565 5.55743 7.0868 5.96462 6.53839 6.58435C5.98997 7.20408 5.6769 7.99689 5.65393 8.82411V45.4725C5.55968 45.4531 5.46247 45.4531 5.36822 45.4725C5.19509 45.4985 5.01837 45.4864 4.8504 45.437C4.68243 45.3877 4.52725 45.3023 4.39569 45.1868C4.27283 45.0751 4.1754 44.9383 4.11 44.7856C4.04459 44.633 4.01273 44.4681 4.01657 44.3021V6.48346Z" fill="#C0A430"/>
</svg>
