<svg width="28" height="28" viewBox="0 0 28 28" fill="none" xmlns="http://www.w3.org/2000/svg">
<path d="M14 28C21.732 28 28 21.732 28 14C28 6.26801 21.732 0 14 0C6.26801 0 0 6.26801 0 14C0 21.732 6.26801 28 14 28Z" fill="#4467AD"/>
<path d="M15.0832 12.0898C15.3134 11.8305 15.5021 11.5692 15.7386 11.3473C16.4645 10.6628 17.3232 10.3185 18.327 10.3268C18.8787 10.331 19.4221 10.3704 19.9531 10.5238C21.1685 10.8744 21.8737 11.7123 22.2118 12.8987C22.4648 13.7884 22.5104 14.7031 22.5125 15.6198C22.5167 17.5529 22.5063 19.488 22.5104 21.421C22.5104 21.6015 22.4607 21.6492 22.2823 21.6492C21.2867 21.6409 20.2891 21.6409 19.2935 21.6492C19.1173 21.6512 19.0799 21.5973 19.0799 21.4314C19.0861 19.5917 19.0861 17.752 19.0799 15.9102C19.0778 15.4498 19.0488 14.9873 18.9202 14.5393C18.6817 13.7138 18.0906 13.2927 17.2257 13.3384C16.0435 13.4006 15.4295 13.9855 15.2781 15.1864C15.2429 15.4726 15.2242 15.7609 15.2263 16.0492C15.2284 17.8391 15.2242 19.629 15.2304 21.419C15.2304 21.5973 15.1869 21.6492 15.0044 21.6492C14.0005 21.6409 12.9967 21.6409 11.9928 21.6492C11.831 21.6512 11.7854 21.6077 11.7854 21.4438C11.7895 17.9013 11.7895 14.3567 11.7854 10.8142C11.7854 10.6379 11.8435 10.5985 12.0094 10.5985C12.9614 10.6047 13.9155 10.6068 14.8675 10.5985C15.0438 10.5964 15.0873 10.6545 15.0853 10.8204C15.077 11.2435 15.0832 11.6667 15.0832 12.0898Z" fill="#FEFEFE"/>
<path d="M9.62424 16.1384C9.62424 17.891 9.62216 19.6436 9.62839 21.3962C9.62839 21.5911 9.58068 21.6492 9.3795 21.6471C8.38394 21.6368 7.38839 21.6388 6.39076 21.6451C6.23105 21.6471 6.18335 21.6057 6.18335 21.4418C6.1875 17.8931 6.1875 14.3443 6.18335 10.7935C6.18335 10.6463 6.21861 10.5944 6.37416 10.5944C7.38424 10.6006 8.39431 10.6027 9.40439 10.5923C9.59935 10.5903 9.62424 10.6649 9.62424 10.8329C9.62216 12.6042 9.62424 14.3713 9.62424 16.1384Z" fill="#FEFEFE"/>
<path d="M9.90008 7.08084C9.90216 8.18217 9.00823 9.07817 7.90897 9.07817C6.82423 9.07817 5.92408 8.18217 5.91994 7.09743C5.91579 6.00232 6.81594 5.1001 7.91312 5.1001C9.00201 5.10425 9.89801 5.99817 9.90008 7.08084Z" fill="#FEFEFE"/>
</svg>
