<svg width="40" height="40" viewBox="0 0 40 40" fill="none" xmlns="http://www.w3.org/2000/svg">
<g clip-path="url(#clip0_1_157)">
<path d="M20 40C31.0457 40 40 31.0457 40 20C40 8.9543 31.0457 0 20 0C8.9543 0 0 8.9543 0 20C0 31.0457 8.9543 40 20 40Z" fill="#2196F3"/>
<path fill-rule="evenodd" clip-rule="evenodd" d="M32.2207 27.3395L32.1993 27.3932C31.998 27.9071 31.7957 28.4205 31.5837 28.9305C31.4016 29.3688 31.2132 29.8087 31.005 30.2352C30.8805 30.4899 30.6834 30.8921 30.4834 31.0921C30.2798 31.2961 30.0549 31.4775 29.8125 31.6334C28.4171 32.5264 26.6729 32.4006 25.1396 31.9894C18.5532 30.2249 9.77449 21.4463 8.00988 14.8599C7.59894 13.3261 7.47332 11.5814 8.36723 10.1861C8.52248 9.94386 8.7036 9.71918 8.90738 9.51604C9.10715 9.31604 9.50988 9.11901 9.76433 8.99455C10.1913 8.78635 10.6315 8.59791 11.0698 8.41581C11.5796 8.20487 12.0932 8.00174 12.6068 7.80018L12.6603 7.77956C12.9294 7.67299 13.2278 7.66689 13.501 7.76237C13.7742 7.85784 14.0039 8.04851 14.1481 8.29948L16.6944 12.7109C16.8536 12.9886 16.8964 13.3181 16.8136 13.6274C16.7308 13.9366 16.529 14.2005 16.2522 14.3615C15.3515 14.8819 14.6329 15.6914 14.4207 16.7296C14.3139 17.224 14.316 17.7357 14.4269 18.2292C14.5378 18.7228 14.7548 19.1862 15.0628 19.5874C15.832 20.5916 16.6705 21.5406 17.5722 22.4277C18.4595 23.3295 19.4088 24.1681 20.4131 24.9374C20.8143 25.2456 21.2778 25.4627 21.7713 25.5736C22.2649 25.6846 22.7767 25.6866 23.2712 25.5797C24.3084 25.3677 25.1189 24.6486 25.6389 23.7479C25.7997 23.4712 26.0636 23.2693 26.3727 23.1865C26.6819 23.1036 27.0113 23.1465 27.289 23.3057L31.7 25.8526C31.9509 25.9966 32.1416 26.226 32.2372 26.4991C32.3328 26.7721 32.327 27.0704 32.2207 27.3395Z" fill="white"/>
</g>
<defs>
<clipPath id="clip0_1_157">
<rect width="40" height="40" fill="white"/>
</clipPath>
</defs>
</svg>
