<svg width="50" height="50" viewBox="0 0 50 50" fill="none" xmlns="http://www.w3.org/2000/svg">
<path d="M39.6484 29.3945C40.053 29.3945 40.3808 29.0667 40.3808 28.6621V26.8893C40.3808 26.4847 40.053 26.1568 39.6484 26.1568C39.2438 26.1568 38.916 26.4847 38.916 26.8893V28.6621C38.916 29.0667 39.2439 29.3945 39.6484 29.3945ZM35.8323 25.5784H37.6052C38.0098 25.5784 38.3376 25.2506 38.3376 24.846C38.3376 24.4414 38.0098 24.1136 37.6052 24.1136H35.8323C35.4277 24.1136 35.0999 24.4414 35.0999 24.846C35.0999 25.2506 35.4278 25.5784 35.8323 25.5784ZM41.6917 25.5784H43.4645C43.8691 25.5784 44.197 25.2506 44.197 24.846C44.197 24.4414 43.8691 24.1136 43.4645 24.1136H41.6917C41.2871 24.1136 40.9593 24.4414 40.9593 24.846C40.9593 25.2506 41.2872 25.5784 41.6917 25.5784ZM12.3948 25.5784H14.1677C14.5723 25.5784 14.9001 25.2506 14.9001 24.846C14.9001 24.4414 14.5723 24.1136 14.1677 24.1136H12.3948C11.9902 24.1136 11.6624 24.4414 11.6624 24.846C11.6624 25.2506 11.9903 25.5784 12.3948 25.5784ZM39.6484 23.5352C40.053 23.5352 40.3808 23.2073 40.3808 22.8027V21.0299C40.3808 20.6253 40.053 20.2975 39.6484 20.2975C39.2438 20.2975 38.916 20.6253 38.916 21.0299V22.8027C38.916 23.2073 39.2439 23.5352 39.6484 23.5352ZM49.9773 48.3617L48.7997 41.902C48.6792 41.2407 48.1024 40.7606 47.4284 40.7606H41.9077C41.9045 40.7027 41.8987 40.6448 41.8882 40.5871L40.7105 34.1274C40.5901 33.4661 40.0134 32.986 39.3391 32.986H38.1836C37.779 32.986 37.4512 33.3139 37.4512 33.7185C37.4512 34.123 37.779 34.4509 38.1836 34.4509H39.2805L40.4308 40.7606H25.7476L26.8978 34.4509H34.7656C35.1702 34.4509 35.498 34.123 35.498 33.7185C35.498 33.3139 35.1702 32.986 34.7656 32.986H33.8184C33.8122 32.8268 32.6523 26.5232 32.6213 26.3527C32.5008 25.6915 31.924 25.2114 31.25 25.2114H27.7695V18.3609C31.599 17.1764 34.389 13.6025 34.389 9.38906C34.3891 4.21191 30.1771 0 25 0C23.4809 0 21.9719 0.371387 20.6357 1.07393C20.2777 1.26221 20.14 1.70508 20.3283 2.06309C20.5167 2.42109 20.9595 2.55889 21.3175 2.37051C22.4442 1.77803 23.7176 1.46484 25 1.46484C29.3694 1.46484 32.9242 5.01953 32.9242 9.38906C32.9242 13.7584 29.3695 17.3132 25 17.3132C20.6305 17.3132 17.0758 13.7585 17.0758 9.38906C17.0758 7.54844 17.7209 5.75527 18.8924 4.34004C19.1504 4.02842 19.1067 3.5667 18.7952 3.30879C18.4837 3.05078 18.0219 3.09443 17.764 3.40596C16.3756 5.0834 15.6109 7.2082 15.6109 9.38906C15.6109 13.6025 18.4009 17.1764 22.2304 18.3609V25.2114H18.75C18.076 25.2114 17.4992 25.6914 17.3787 26.3527C17.3477 26.5228 16.1863 32.8266 16.1815 32.986H10.6608C9.98661 32.986 9.40985 33.466 9.28954 34.1273L8.11171 40.5871C8.10116 40.6449 8.0954 40.7028 8.09218 40.7606H2.57157C1.89755 40.7606 1.32079 41.2406 1.20028 41.902L0.0225474 48.3617C-0.0513783 48.7674 0.057899 49.1819 0.322352 49.499C0.587977 49.8175 0.978602 50.0001 1.39393 50.0001H16.2491C16.484 50.0001 16.7099 49.9399 16.9107 49.8316C17.1116 49.9398 17.3375 50.0001 17.5723 50.0001H32.4274C32.6622 50.0001 32.8882 49.9399 33.089 49.8316C33.2898 49.9398 33.5158 50.0001 33.7506 50.0001H48.6058C49.0211 50.0001 49.4117 49.8175 49.6773 49.499C49.942 49.1819 50.0514 48.7674 49.9773 48.3617ZM23.6953 18.6869C24.1219 18.7465 24.5573 18.778 25 18.778C25.4427 18.778 25.8781 18.7465 26.3047 18.6869V25.2115H23.6953V18.6869ZM18.8087 26.6763H31.1914L32.3416 32.9859H17.6585L18.8087 26.6763ZM25.4089 34.4508L25 36.6937L24.5911 34.4508H25.4089ZM1.48007 48.5352L2.63026 42.2255H15.013L16.1633 48.5352H1.48007ZM16.9108 44.4684L16.5019 42.2254H17.3197L16.9108 44.4684ZM9.56923 40.7606L10.7195 34.4509H23.1022L24.2524 40.7606H9.56923ZM17.6585 48.5352L18.8087 42.2255H31.1914L32.3416 48.5352H17.6585ZM33.0891 44.4684L32.6803 42.2254H33.4981L33.0891 44.4684ZM33.8368 48.5352L34.9871 42.2255H47.3698L48.52 48.5352H33.8368ZM6.53544 25.5784H8.30829C8.71288 25.5784 9.04071 25.2506 9.04071 24.846C9.04071 24.4414 8.71288 24.1136 8.30829 24.1136H6.53544C6.13085 24.1136 5.80302 24.4414 5.80302 24.846C5.80302 25.2506 6.13095 25.5784 6.53544 25.5784ZM25 14.5032C25.4046 14.5032 25.7324 14.1754 25.7324 13.7708V6.77539L27.0239 8.06689C27.31 8.35283 27.7738 8.35303 28.0598 8.06689C28.3458 7.78076 28.3458 7.31709 28.0598 7.03105L25.518 4.48926C25.2579 4.22354 24.7648 4.19033 24.4821 4.48926L21.9403 7.03105C21.6543 7.31719 21.6543 7.78086 21.9403 8.06689C22.2265 8.35283 22.6901 8.35283 22.9762 8.06689L24.2676 6.77539V13.7707C24.2676 14.1753 24.5955 14.5032 25 14.5032ZM10.3516 29.3945C10.7561 29.3945 11.084 29.0667 11.084 28.6621V26.8893C11.084 26.4847 10.7561 26.1568 10.3516 26.1568C9.94696 26.1568 9.61913 26.4847 9.61913 26.8893V28.6621C9.61913 29.0667 9.94706 29.3945 10.3516 29.3945ZM10.3516 23.5352C10.7561 23.5352 11.084 23.2073 11.084 22.8027V21.0299C11.084 20.6253 10.7561 20.2975 10.3516 20.2975C9.94696 20.2975 9.61913 20.6253 9.61913 21.0299V22.8027C9.61913 23.2073 9.94706 23.5352 10.3516 23.5352Z" fill="#C0A430"/>
</svg>
