<svg width="50" height="50" viewBox="0 0 50 50" fill="none" xmlns="http://www.w3.org/2000/svg">
<g clip-path="url(#clip0_1_58)">
<path d="M29.8387 45.1613H20.1613V46.7742H29.8387V45.1613Z" fill="#C0A430"/>
<path d="M16.9354 38.7097H33.0645V22.5807H16.9354V38.7097ZM18.5483 24.1936H31.4516V37.0968H18.5483V24.1936Z" fill="#C0A430"/>
<path d="M34.6775 9.67737H15.3226V17.7419H34.6775V9.67737ZM33.0646 16.129H16.9355V11.2903H33.0646V16.129Z" fill="#C0A430"/>
<path d="M16.9355 19.3549H15.3226V20.9678H16.9355V19.3549Z" fill="#C0A430"/>
<path d="M34.6774 19.3549H18.5483V20.9678H34.6774V19.3549Z" fill="#C0A430"/>
<path d="M47.5355 27.2403C49.0218 26.2226 50 24.5137 50 22.5806C50 19.4685 47.4677 16.9355 44.3548 16.9355C41.2419 16.9355 38.7097 19.4685 38.7097 22.5806C38.7097 24.8798 40.0935 26.8597 42.071 27.7387C41.6387 28.0984 41.2702 28.5339 40.9815 29.0323H37.9032V6.45161V4.83871V4.03226C37.9032 1.80887 36.0944 0 33.871 0H16.129C13.9056 0 12.0968 1.80887 12.0968 4.03226V4.83871V6.45161V29.0323H9.01855C8.72984 28.5339 8.36129 28.0984 7.92903 27.7387C9.90645 26.8597 11.2903 24.8798 11.2903 22.5806C11.2903 19.4685 8.75806 16.9355 5.64516 16.9355C2.53226 16.9355 0 19.4685 0 22.5806C0 24.5137 0.978226 26.2226 2.46452 27.2403C0.995161 28.0718 0 29.6468 0 31.4516V37.9032V38.7097V50H9.67742V38.7097V37.9032V33.871H12.0968V41.9355V43.5484V45.9677C12.0968 48.1911 13.9056 50 16.129 50H33.871C36.0944 50 37.9032 48.1911 37.9032 45.9677V43.5484V41.9355V33.871H40.3226V37.9032V38.7097V50H50V38.7097V37.9032V31.4516C50 29.6468 49.0048 28.0718 47.5355 27.2403ZM40.3226 22.5806C40.3226 20.3573 42.1315 18.5484 44.3548 18.5484C46.5782 18.5484 48.3871 20.3573 48.3871 22.5806C48.3871 24.804 46.5782 26.6129 44.3548 26.6129C42.1315 26.6129 40.3226 24.804 40.3226 22.5806ZM13.7097 4.03226C13.7097 2.69839 14.7952 1.6129 16.129 1.6129H33.871C35.2048 1.6129 36.2903 2.69839 36.2903 4.03226V4.83871H13.7097V4.03226ZM1.6129 22.5806C1.6129 20.3573 3.42177 18.5484 5.64516 18.5484C7.86855 18.5484 9.67742 20.3573 9.67742 22.5806C9.67742 24.804 7.86855 26.6129 5.64516 26.6129C3.42177 26.6129 1.6129 24.804 1.6129 22.5806ZM4.83871 48.3871H1.6129V38.7097H4.83871V48.3871ZM8.06452 48.3871H6.45161V38.7097H8.06452V48.3871ZM8.06452 37.0968H1.6129V31.4516C1.6129 29.6726 3.05968 28.2258 4.83871 28.2258C5.64032 28.2258 6.39435 28.5226 6.97258 29.0323H5.64516C4.31129 29.0323 3.22581 30.1177 3.22581 31.4516C3.22581 32.7855 4.31129 33.871 5.64516 33.871H8.06452V37.0968ZM5.64516 32.2581C5.20081 32.2581 4.83871 31.8968 4.83871 31.4516C4.83871 31.0065 5.20081 30.6452 5.64516 30.6452H13.7097C14.154 30.6452 14.5161 31.0065 14.5161 31.4516C14.5161 31.8968 14.154 32.2581 13.7097 32.2581H5.64516ZM36.2903 45.9677C36.2903 47.3016 35.2048 48.3871 33.871 48.3871H16.129C14.7952 48.3871 13.7097 47.3016 13.7097 45.9677V43.5484H36.2903V45.9677ZM36.2903 41.9355H13.7097V33.871C15.0435 33.871 16.129 32.7855 16.129 31.4516C16.129 30.1177 15.0435 29.0323 13.7097 29.0323V6.45161H36.2903V29.0323C34.9565 29.0323 33.871 30.1177 33.871 31.4516C33.871 32.7855 34.9565 33.871 36.2903 33.871V41.9355ZM36.2903 32.2581C35.846 32.2581 35.4839 31.8968 35.4839 31.4516C35.4839 31.0065 35.846 30.6452 36.2903 30.6452H44.3548C44.7992 30.6452 45.1613 31.0065 45.1613 31.4516C45.1613 31.8968 44.7992 32.2581 44.3548 32.2581H36.2903ZM43.5484 48.3871H41.9355V38.7097H43.5484V48.3871ZM48.3871 48.3871H45.1613V38.7097H48.3871V48.3871ZM48.3871 37.0968H41.9355V33.871H44.3548C45.6887 33.871 46.7742 32.7855 46.7742 31.4516C46.7742 30.1177 45.6887 29.0323 44.3548 29.0323H43.0274C43.6056 28.5226 44.3597 28.2258 45.1613 28.2258C46.9403 28.2258 48.3871 29.6726 48.3871 31.4516V37.0968Z" fill="#C0A430"/>
</g>
<defs>
<clipPath id="clip0_1_58">
<rect width="50" height="50" fill="white"/>
</clipPath>
</defs>
</svg>
