<svg width="40" height="40" viewBox="0 0 40 40" fill="none" xmlns="http://www.w3.org/2000/svg">
<path d="M20 40C31.0457 40 40 31.0457 40 20C40 8.9543 31.0457 0 20 0C8.9543 0 0 8.9543 0 20C0 31.0457 8.9543 40 20 40Z" fill="#29A71A"/>
<path d="M28.8182 11.1818C26.7374 9.08023 23.9741 7.79139 21.0267 7.54778C18.0792 7.30417 15.1418 8.12183 12.7442 9.85328C10.3465 11.5847 8.64654 14.116 7.95083 16.9904C7.25513 19.8649 7.60951 22.8934 8.95005 25.5295L7.63414 31.9182C7.62049 31.9818 7.6201 32.0475 7.633 32.1112C7.64591 32.175 7.67183 32.2354 7.70914 32.2886C7.7638 32.3695 7.84182 32.4317 7.93279 32.4671C8.02375 32.5024 8.12334 32.5091 8.21823 32.4864L14.4796 31.0023C17.1084 32.3089 20.1155 32.6405 22.9658 31.938C25.8161 31.2356 28.3248 29.5447 30.0454 27.1663C31.766 24.7878 32.5871 21.876 32.3623 18.9491C32.1376 16.0221 30.8818 13.2698 28.8182 11.1818ZM26.866 26.7636C25.4262 28.1993 23.5723 29.147 21.5654 29.4732C19.5585 29.7994 17.4999 29.4876 15.6796 28.5818L14.8069 28.15L10.9682 29.0591L10.9796 29.0114L11.7751 25.1477L11.3478 24.3045C10.4177 22.4779 10.0896 20.4037 10.4105 18.3792C10.7314 16.3546 11.6848 14.4836 13.1341 13.0341C14.9553 11.2135 17.425 10.1908 20.0001 10.1908C22.5751 10.1908 25.0448 11.2135 26.866 13.0341C26.8815 13.0519 26.8982 13.0686 26.916 13.0841C28.7145 14.9094 29.7186 17.3717 29.7092 19.9342C29.6999 22.4967 28.6778 24.9516 26.866 26.7636Z" fill="white"/>
<path d="M26.5249 23.9296C26.0545 24.6705 25.3113 25.5773 24.3772 25.8023C22.7408 26.1978 20.2295 25.816 17.1045 22.9023L17.0658 22.8682C14.3181 20.3205 13.6045 18.2 13.7772 16.5182C13.8727 15.5637 14.6681 14.7 15.3386 14.1364C15.4446 14.0459 15.5703 13.9815 15.7056 13.9483C15.8409 13.9151 15.9822 13.9141 16.118 13.9452C16.2538 13.9763 16.3805 14.0388 16.4879 14.1277C16.5952 14.2165 16.6803 14.3293 16.7363 14.4569L17.7477 16.7296C17.8134 16.877 17.8377 17.0394 17.8181 17.1996C17.7985 17.3597 17.7356 17.5115 17.6363 17.6387L17.1249 18.3023C17.0152 18.4393 16.949 18.6061 16.9348 18.781C16.9206 18.956 16.9592 19.1312 17.0454 19.2841C17.3317 19.7864 18.0181 20.525 18.7795 21.2091C19.634 21.9819 20.5817 22.6887 21.1817 22.9296C21.3423 22.9952 21.5188 23.0112 21.6885 22.9755C21.8583 22.9399 22.0134 22.8542 22.134 22.7296L22.7272 22.1319C22.8417 22.019 22.984 21.9385 23.1397 21.8986C23.2954 21.8587 23.4589 21.8607 23.6136 21.9046L26.0158 22.5864C26.1484 22.6271 26.2698 22.6975 26.3709 22.7923C26.4721 22.8871 26.5502 23.0037 26.5993 23.1333C26.6484 23.2629 26.6673 23.4021 26.6544 23.5401C26.6415 23.6781 26.5972 23.8113 26.5249 23.9296Z" fill="white"/>
</svg>
