<svg width="47" height="61" viewBox="0 0 47 61" fill="none" xmlns="http://www.w3.org/2000/svg">
<path d="M23.35 49.4601C22.56 48.5501 21.79 47.6801 21.03 46.7901C17.65 42.8101 14.44 38.7001 11.55 34.3401C9.52 31.2801 7.64 28.1401 6.28 24.7101C5.54 22.8501 5 20.9401 5.03 18.9101C5.13 10.4201 11.35 2.8901 19.67 1.3101C26.43 0.0300968 32.23 1.9501 36.94 6.9701C39.5 9.7001 40.93 13.0001 41.51 16.7001C42 19.9001 41.28 22.8701 40 25.7601C38.4 29.3801 36.31 32.7301 34.05 35.9701C30.83 40.6101 27.29 45.0001 23.55 49.2301C23.49 49.3001 23.44 49.3701 23.35 49.4601ZM32.53 17.6901C32.54 12.6401 28.45 8.5501 23.38 8.5201C18.35 8.4901 14.2 12.6101 14.19 17.6501C14.18 22.7201 18.28 26.8501 23.34 26.8601C28.4 26.8701 32.52 22.7601 32.53 17.6901Z" fill="black"/>
<path d="M30.46 43.21C30.65 42.71 30.99 42.61 31.51 42.68C33.19 42.9 34.89 43.02 36.58 43.26C38.77 43.57 40.92 44.05 42.94 45C43.96 45.48 44.89 46.1 45.6 47C46.94 48.71 46.9 50.84 45.51 52.74C44.4 54.27 42.88 55.3 41.25 56.19C38.54 57.66 35.63 58.57 32.63 59.19C29.17 59.91 25.67 60.2 22.14 60.1C17.13 59.95 12.25 59.15 7.6 57.21C5.75 56.44 4 55.5 2.49 54.17C1.53 53.32 0.730002 52.34 0.340002 51.09C-0.249998 49.22 0.390001 47.35 2.05 46.07C3.54 44.91 5.27 44.33 7.07 43.88C9.38 43.3 11.73 42.99 14.09 42.8C14.47 42.77 14.86 42.78 15.23 42.69C15.74 42.56 16.01 42.78 16.23 43.24C15.5 43.35 14.78 43.44 14.06 43.56C11.11 44.04 8.22 44.72 5.53 46.08C4.7 46.5 3.92 47 3.28 47.69C2.26 48.78 2.22 49.92 3.2 51.05C3.91 51.86 4.82 52.39 5.78 52.84C7.74 53.78 9.81 54.34 11.93 54.76C16.51 55.68 21.14 55.94 25.8 55.77C29.78 55.63 33.72 55.17 37.56 54.08C39.4 53.56 41.18 52.91 42.72 51.74C43.08 51.47 43.41 51.14 43.69 50.78C44.39 49.87 44.36 48.93 43.67 48.02C43.01 47.15 42.11 46.58 41.15 46.09C39.12 45.04 36.94 44.41 34.71 43.96C33.3 43.67 31.88 43.46 30.46 43.21Z" fill="black"/>
</svg>
